<mxfile host="Electron" modified="2024-01-02T22:01:28.522Z" agent="Mozilla/5.0 (Windows NT 10.0; Win64; x64) AppleWebKit/537.36 (KHTML, like Gecko) draw.io/21.7.5 Chrome/114.0.5735.289 Electron/25.8.1 Safari/537.36" etag="cGdA8QIraVMMbt4joub1" version="21.7.5" type="device">
  <diagram name="Page-1" id="RBe4kKmWxrb9Rina0VuJ">
    <mxGraphModel dx="3545" dy="3219" grid="1" gridSize="10" guides="1" tooltips="1" connect="1" arrows="1" fold="1" page="1" pageScale="1" pageWidth="827" pageHeight="1169" background="none" math="0" shadow="1">
      <root>
        <mxCell id="0" />
        <mxCell id="1" parent="0" />
        <mxCell id="Mw_88Z8rka56BvABdyxa-1" value="" style="endArrow=none;html=1;rounded=0;strokeWidth=2;shadow=0;shape=link;" parent="1" edge="1">
          <mxGeometry width="50" height="50" relative="1" as="geometry">
            <mxPoint y="-1120" as="sourcePoint" />
            <mxPoint x="827" y="-1120" as="targetPoint" />
          </mxGeometry>
        </mxCell>
        <mxCell id="Mw_88Z8rka56BvABdyxa-2" value="&lt;span style=&quot;font-size: 20px;&quot;&gt;Tube Dimensions&lt;/span&gt;" style="text;align=left;html=1;verticalAlign=middle;rounded=0;shadow=0;glass=0;labelBorderColor=none;labelBackgroundColor=none;whiteSpace=wrap;fontStyle=1" parent="1" vertex="1">
          <mxGeometry x="6" y="-1155" width="328" height="30" as="geometry" />
        </mxCell>
        <mxCell id="Mw_88Z8rka56BvABdyxa-4" value="&lt;span&gt;&lt;font style=&quot;font-size: 20px;&quot;&gt;Sun Flower&lt;/font&gt;&lt;/span&gt;" style="text;align=right;html=1;verticalAlign=middle;rounded=0;shadow=0;glass=0;labelBorderColor=none;labelBackgroundColor=none;whiteSpace=wrap;fontStyle=1" parent="1" vertex="1">
          <mxGeometry x="620" y="-1155" width="201.81" height="30" as="geometry" />
        </mxCell>
        <mxCell id="Mw_88Z8rka56BvABdyxa-8" value="" style="endArrow=none;html=1;rounded=0;strokeWidth=2;shadow=0;shape=link;endSize=6;startSize=6;" parent="1" edge="1">
          <mxGeometry width="50" height="50" relative="1" as="geometry">
            <mxPoint y="-50" as="sourcePoint" />
            <mxPoint x="827" y="-50" as="targetPoint" />
          </mxGeometry>
        </mxCell>
        <mxCell id="Mw_88Z8rka56BvABdyxa-9" value="&lt;div style=&quot;&quot;&gt;Tube Height : 160 mm | The tube outer shape is hexagonal for an easier 3D&lt;span style=&quot;background-color: initial;&quot;&gt;&amp;nbsp;printing&lt;/span&gt;&lt;/div&gt;&lt;div style=&quot;&quot;&gt;The supports holders positions are chosen as easily as possible&amp;nbsp;&lt;/div&gt;" style="text;strokeColor=none;align=left;fillColor=none;html=1;verticalAlign=middle;whiteSpace=wrap;rounded=0;" parent="1" vertex="1">
          <mxGeometry x="4" y="-40" width="466" height="30" as="geometry" />
        </mxCell>
        <mxCell id="Mw_88Z8rka56BvABdyxa-12" value="The tube can have additional holes for cable management&lt;br&gt;emergencies." style="text;strokeColor=none;align=left;fillColor=none;html=1;verticalAlign=middle;whiteSpace=wrap;rounded=0;" parent="1" vertex="1">
          <mxGeometry x="481" y="-40" width="346" height="30" as="geometry" />
        </mxCell>
        <mxCell id="Mw_88Z8rka56BvABdyxa-13" value="" style="endArrow=none;html=1;rounded=0;strokeWidth=1;" parent="1" edge="1">
          <mxGeometry width="50" height="50" relative="1" as="geometry">
            <mxPoint x="475" y="-4" as="sourcePoint" />
            <mxPoint x="475" y="-42" as="targetPoint" />
          </mxGeometry>
        </mxCell>
        <mxCell id="Mw_88Z8rka56BvABdyxa-16" value="" style="shape=image;verticalLabelPosition=bottom;verticalAlign=top;imageAspect=0;image=data:image/png,iVBORw0KGgoAAAANSUhEUgAAAO8AAAC3CAYAAAD6rQkjAAAACXBIWXMAAC4jAAAuIwF4pT92AAAF8WlUWHRYTUw6Y29tLmFkb2JlLnhtcAAAAAAAPD94cGFja2V0IGJlZ2luPSLvu78iIGlkPSJXNU0wTXBDZWhpSHpyZVN6TlRjemtjOWQiPz4gPHg6eG1wbWV0YSB4bWxuczp4PSJhZG9iZTpuczptZXRhLyIgeDp4bXB0az0iQWRvYmUgWE1QIENvcmUgNi4wLWMwMDUgNzkuMTY0NTkwLCAyMDIwLzEyLzA5LTExOjU3OjQ0ICAgICAgICAiPiA8cmRmOlJERiB4bWxuczpyZGY9Imh0dHA6Ly93d3cudzMub3JnLzE5OTkvMDIvMjItcmRmLXN5bnRheC1ucyMiPiA8cmRmOkRlc2NyaXB0aW9uIHJkZjphYm91dD0iIiB4bWxuczp4bXA9Imh0dHA6Ly9ucy5hZG9iZS5jb20veGFwLzEuMC8iIHhtbG5zOnhtcE1NPSJodHRwOi8vbnMuYWRvYmUuY29tL3hhcC8xLjAvbW0vIiB4bWxuczpzdEV2dD0iaHR0cDovL25zLmFkb2JlLmNvbS94YXAvMS4wL3NUeXBlL1Jlc291cmNlRXZlbnQjIiB4bWxuczpkYz0iaHR0cDovL3B1cmwub3JnL2RjL2VsZW1lbnRzLzEuMS8iIHhtbG5zOnBob3Rvc2hvcD0iaHR0cDovL25zLmFkb2JlLmNvbS9waG90b3Nob3AvMS4wLyIgeG1wOkNyZWF0b3JUb29sPSJBZG9iZSBQaG90b3Nob3AgMjIuMSAoV2luZG93cykiIHhtcDpDcmVhdGVEYXRlPSIyMDIzLTA1LTExVDE5OjQ1OjM0KzAzOjAwIiB4bXA6TWV0YWRhdGFEYXRlPSIyMDIzLTA1LTExVDE5OjQ1OjM0KzAzOjAwIiB4bXA6TW9kaWZ5RGF0ZT0iMjAyMy0wNS0xMVQxOTo0NTozNCswMzowMCIgeG1wTU06SW5zdGFuY2VJRD0ieG1wLmlpZDplODQ5MDM1MS0xYmYzLWU5NDctYjk2Mi0yNjJjZmY4N2QyODEiIHhtcE1NOkRvY3VtZW50SUQ9ImFkb2JlOmRvY2lkOnBob3Rvc2hvcDpiODE5Y2M1Zi1mNDQxLTkwNDctOTlkYy0yOWMwNzJlYjVlMzQiIHhtcE1NOk9yaWdpbmFsRG9jdW1lbnRJRD0ieG1wLmRpZDo5NmNmM2JkNy1iNzJjLTUyNGQtOGRiZC04MGNmMmNiZDA5MWEiIGRjOmZvcm1hdD0iaW1hZ2UvcG5nIiBwaG90b3Nob3A6Q29sb3JNb2RlPSIzIiBwaG90b3Nob3A6SUNDUHJvZmlsZT0ic1JHQiBJRUM2MTk2Ni0yLjEiPiA8eG1wTU06SGlzdG9yeT4gPHJkZjpTZXE+IDxyZGY6bGkgc3RFdnQ6YWN0aW9uPSJjcmVhdGVkIiBzdEV2dDppbnN0YW5jZUlEPSJ4bXAuaWlkOjk2Y2YzYmQ3LWI3MmMtNTI0ZC04ZGJkLTgwY2YyY2JkMDkxYSIgc3RFdnQ6d2hlbj0iMjAyMy0wNS0xMVQxOTo0NTozNCswMzowMCIgc3RFdnQ6c29mdHdhcmVBZ2VudD0iQWRvYmUgUGhvdG9zaG9wIDIyLjEgKFdpbmRvd3MpIi8+IDxyZGY6bGkgc3RFdnQ6YWN0aW9uPSJzYXZlZCIgc3RFdnQ6aW5zdGFuY2VJRD0ieG1wLmlpZDplODQ5MDM1MS0xYmYzLWU5NDctYjk2Mi0yNjJjZmY4N2QyODEiIHN0RXZ0OndoZW49IjIwMjMtMDUtMTFUMTk6NDU6MzQrMDM6MDAiIHN0RXZ0OnNvZnR3YXJlQWdlbnQ9IkFkb2JlIFBob3Rvc2hvcCAyMi4xIChXaW5kb3dzKSIgc3RFdnQ6Y2hhbmdlZD0iLyIvPiA8L3JkZjpTZXE+IDwveG1wTU06SGlzdG9yeT4gPC9yZGY6RGVzY3JpcHRpb24+IDwvcmRmOlJERj4gPC94OnhtcG1ldGE+IDw/eHBhY2tldCBlbmQ9InIiPz6GNQXxAAAn8UlEQVR4nO2deZxcVZn3v7e7ekt30tkDhCRA2AKEsIQo8IKAgCOL6Os2yoyKIyjO6MwoijqIzvjiMoL7BgQFdByVURRFQcc4wiCb7GEVyIIJBLOSTjrpper943dP33Nv36q63V1V91bV+X0+9Um6q6rr1jn3d579ebxCoYCDQ6Xged4CoAVY5e6t6qIl7QtwaDj0ANOA1rQvpNHhyOtQMXie1wrsDRwI9KZ8OQ0PR16HSqIbEfdooC3la2l45NK+AIfGgOd5APOBlwEzAS/VC2oCOPI6VAptwCIkdftwWl3V4RbYoVKYDiwD9gDagcF0L6fx4cjrUCnMBY4FJiHiDqV7OY0PR16HCcOTwXsIcDAyxfqBgVQvqgngyOtQCXQB/weFh/LAizjJW3U48jpMCL6XeX+kMrcilflpHHmrDkdeh0rgFcBC//87gHuB4fQupzngyOswUcwAzkCOKg+pzHelekVNAkdeh3HDV5lPBJYi4g4BDwDPu6KE6iNTSRr+zWCjE9gLqWSzUPpdG7KtPKSaDQE7gS3AOmA1sBUYuXvcjVRZWPs0FXgrivECbAduwqnMNUFq5I0QtQPFCRch58d8YIH/u1nAZOTRbCUgrkEBOUl2o8yeF4H1wFrkOHnM87yHgE3IE6o3OUJXAqcBpyANroDW+7ZUr6iJUFPyWoRtRZk4h6J0uiP9/++JSsrMdSXNj+3w3zcDkd4w00jlF4CngD8CdwD3e563FSg4Eo8bc4G/Q+V/ALuAH6HD06EG8Gpx8/qk9VDC+uHAychDeTDa/Baqn8heQOpcH7AKkfjnyLmyHUfkRPD3sgO4GPgI0ogAHkeOq9XgNJtaoGrkjajFc4HTgTcBRyEJOZZi7QKBNLX/9fxHi/X7pIdAHoU1HgduQbbaw0Ryct1NGIa/rycAy1H5H0i7uQT4MpB3a1YbVJS8EcJ2Ixv2HOD/AvuhE7sUuQxJjQ27A9iMnFFb/Z/7/OdAB0A3UpmnIsfJNP/nTqR+J1HBB4HnEYmvBe7DT+9zN6Jg7e0M4GrgNWj988AfgDci88StWY1QDfJ2AYuBvwZeC8yjtG2dR2TcBjwLrASeANYgx9OLyNm0g+JZOx6KM04D5iB7em+klh8KHIBuuq4E17IFOV2uB273f256aWKpyx8APk6gLm8G3gbcDI64tURFyOtvbCuStG/1H3tTXDUeRsnrq4C70cm9EhF2C5UrJ2tF+bamNcsxKAf3QGAKInJcrDuPJP3/AN8Bfo8kftPaxZ7ntQPnAZ8hcFINIPX5IrSfjrw1xITIa6lSc5B6/H5EjLgWKAUkYf+MSHEL8CBSV/ux4rKj3pjwGmPixFG0IafZgSi54FSkJUwmXiIPI6n/K3ST3oUl/ZvhRrXW9HTgm8j8AR1wDwLnIk0JaI41yQrGTN4IQbpQds37kKexO+YtBUTOlSiU8GvkkewjhrDV2PwipM4hIi8BzkQ353xkK0ffMAw8B/wHUqefAYab4Ub1PK8FeBVwBXAQgaayHu37TcBQM6xF1jAR8k5FTooPo9M4qn7mUezvbuB7SPVch6Rv6ENrtfElJHMHsC9KOngzksbdjFb7dwOPAV9HN+3GRtWjrbU6AfgSisWbX/Yhu/dq5ItwEjcFjIm8Vrx2EfDPyLadFHlZAdlC96LN/R1SjUPOpqxsdoTQrSgd83ikDh6PbGb7YCqguPAtwL+hUFMesvOdJoLIeixBB9WxBGuwC/kBPob8Ag3xvesRicgb2dAjkNPilYy2bfPICfVN4KcoRXHE+ZTFTS4hjacBxyEnzclI07BJPIwOpatRfHObeSKL3zMpLOfjqcDlyFtvFmkQ+DHStp4z76nn71vXKBQKZR8+upBT6hF04xasRx4F6m9A0qqbmLhqks9K61EC0/3v/UvgJf+72t99N3JkvY7IYZb2dxrn9/eQ/b8y8j0HgF8g86KlXr9nIz2SbmgHyo5aHXPzDiMJexHKTR4VHkr7S455UeIxB7gAuJ/AbrcPry3Itj/crEHa32Mc33kK8EFgQ2SfB9DhdYhN3LSvudkfSTZ0EvBOpCbZG5pHatQK4CSU1VTXpC3y/W20Io/rZ9BBNhgh8RAyG/4VVUNleh0iWAR8myAKYPa4H6nKBxE5mNO+/mZ/lNvUduAtyLaLSpp+4PvIM9vR6JsaQRdy4lyH4sBRM2I38rK/Jctr46MbmQUmhm1/jx3ANaieujWL36GZH7EOK8uJcyJKTjgg8pI+4ErgKyj8Eyq+jvubjYAY51YvCi+9D2VvdVnPGa/0b4HPA/fgr1Pa62M5pRYD5yOTaKb1kjxKe/wCcshthPSv2yGMUeS1wkEHoFP3eALnUwE5bS5DyQp/oYHCJOVQxDPtoaqpdyDzIprLPYxu/p8jMjxJCk0BYqq83oCIa9Rh84IhVFT/aXTN2/Dj8s2wx/WEYuTdF0mL1xE4KArIo/zvwNeQg6ZpNzWGyO2o3PHdwFmMnlE7jIosfovipLdTgzBa5DpnoGyp89FoEjtGbzLhbkWH8yO4yqpMI0Ref6MnAR8CPkrYXtsJfA6pyy/iekQBsSSegsyNC1F2Ujfh0EoeSeIViMS/o8Ikjrmm2aiE7+0oTh91Lg4h8+cLwH8ijWoEzby/WUYceU9AObzzrNcNIufMx/B7QbkNDaMEYd6FwkfRnOk8sokfBX6G0i3/hOU/GMsax3z+JJRk8kaUZDKfiPPMv4aXUL7511Ad887xfL5D9WEJ1xnA+hHy+k9MB74FvJ5AWuSBO1GM8wmayMYdDyIk8oB9UDOCt6FqpmhDggI6HDej9b0flUjeg6ThKPu4RKHFIhS2OxYdGAvQZkfTO40JdC/SpFYQadBnf55DerD2uhvtaS+6Lx7xCoWC7aR6PfIuTvXfUEAq8gWoLG4Q3KaWQhFitSI/wjmoScHBjCaVwTAKNW1CsfVVqEPFNv/3w2ivOv3HbIJum3MI2uPGXcgwCv88hFT236Aw4LikvUN1YN1DLagW/eXIR7EA+F9k2rxok3cuUo1PIdj4AZSQ8EUaJHe3loghcgsqfDgZqbPHIMdWu3lLzJ+JxtexXttCssb5RrLfA/wAdQpZH/l7+jC3t6nDum9ejcKQS9BBvcb/+Y+FQmG3CWm0ICfLMYTDQisRy7eD29ixwjoYDfKoGcF3URhmMdqgU5Bk7kVS0yakabIHyZv25dHBux1J7hXIrr3P/92ojXR7my6s+2QmighcgKIX3Wi/tqCkKJOeOxKPnINU5sn+zyZL6Cq0+c5BNU7EOAQNtqJw0e0olfJwpB69HMXYp6Okj3aCOKxHfBfNYUTWnciTbXpU3406Yo6yZ6PX5lB7RO6HKchf8V7kaOwhOLR3Aj9EmnH/iO/Df/KVyMM8x/+5gOyi16OmcG6jq4Ai9nE7MmEORE0OFiBVeyoisyGxmRCxDanAa9BePY1CPbspAreX6aFIfsBxKCpxBkF/MBAP+5DE/RTa54LZP9MadRlyPxsMofKv58BtdiXhb14vaoS3CbinUCjkrU0dQNrOqkp+rtvDzMEDDkP14m9BjsdoVGAjqhX/FrpXQjB9nI4mbE9tJ5I84FAxdKBQzj8jG/QRYEeRTLdxwRE1GyixhwsQYf/O/3+0qcUQui8+hTq29Jsn7L3NoTDDIsKOqlUoB9fdCJXHDJR2eiRKkOjA7wNlw617Q2IW2vsLUYeSKGmNmnwjkriPUsL8MeTdy/pdHtm7bmBUdbAQEbcTxW+LNZJ3aAzkUCThTNQXbVQJLUEt+GOo2d/NKLRXMv6eQ7q2Xco2jJqqDWbl9Pc8rwMlNmwB1mblusaJ+f7DQwkSRU9Wh/pCRE1uQSnGZ6OKs0OJH/eTR4Lye6iK7xkSmqs5FJKw7d3d6KbKBPy+wUuQjXAr8rjVpbTyPK8NEbcbdWH8M37ljkNDYS4i7TuRpO2MeY1RkX+L6uLvQ2ZU8IIyQiqH0vTs02AAv6VnRrAnshNOQskG4/fkpI8egnrfPqQ2Z1KNsKTIHihs1Yvix6uQVpbJ664FijiiOpHz6WyUAnso8aQFcexx4KvIIbWBcUziyDE6D9YM/kodnud1oRjYqehmf4j69oDPQKdyK5K8GzPMgRyKLX8YFe53oRvuMpRfO8rJ1qToQPH4s5B2eChBumsUJsPuepS5uArLkzxW5Pw/aHuaAVrSvqn8020/VJEzl6COuJ4xBYXmPHT6bk73ckqiBxVSvJfAwXI8ynU/Dx2kDY8S4R7jiHoDqhjbn+ITKAtIm/0Zsmsf9X+eUDOLHGH70fN/1+l5XtrhijnA36Cc683IA7cr7UNlgphEUAg/iFXskUH0IBXQ9oy2oMSCJTQJeWMwGbUOeiPKQFxA6bGx/cAdwDdQae1GKuSzySH1LU/gtGolpo1rLeF5Xic65c9GttYNyAtX7+gk8Oyb0r+sooMgXdZGDnn+mw2TkEr8JkTa+ZQuFBlEZsaVqJx2PdK2KiZ9cuj0H7YupBM5idKEaei2ANkI3wNeqnOpC7KFcgQFBln+QrtKPDe9ZldRA5TJZutEkvZvkYpcau40iEtPAdeiFOM1qLCg4m2jcsiO7CcwsltQVUsLMZUo1YS/iD1IJVnmf/730WIMF39n3aCVcIVQVeCv42RU4nkC2uOfooKFpOM4XyLemeJR4/siBZih7IcjJ9TZSAsptm+m1nodqvz5MXJG9VHFtcohcb7Zv1jzu4P8n7dU64OLYCqqrHgHIvEfkGdue42vo1qwa3VzFPdKThTTUd7svyASF5DUuBjVgya5oXZg9bOKYDADPpFqwENrdwyStKf7P5dqeFBAh+JPEHGfQPdr1buTGPKuRp4zg4XAAs/zttRig3xJ0Y4KJP4RqSabUfA6VAZV5zCTFUCne7E44ESxBHg/wYEM8ApU4P0BJBHKoVTIMEcKmtlEkKDQYwqqpX4HKoYvZxqY5n2/QCryQ8iDXLMEohwS9Y8hr67R5Wci4/zBal+Av6idqFHbRSgjJY/iYCtorAwkOyzXhjKtqoHFKO3VRivBqNIk5DUqfhzmIgdOkr+TdUwCXob6bZ+G6mmLMb3gP7cFJVdchziymRTyD3LIrnkInbKmCXcHymi60fO8nVWWeq3IMfUxJB3aUPeHq/HVtgaRuqBT2ahTOcKSsZKwJyDYmI0O5j8n+Bu9BI0Io1gITPM8r69O9yaHKnyOR5L2RIIuMsVgYrW3ouZ9DxFD2lquh4lPPYo29ED/Zw8RaQFyd1cFft7yNKTivQapzhvQtIY11frcFDFAoFa1AVOrZDuOjKGJYBIws9xn+trQ3mj/4zAPaUrPFXm+5khY/9yKDrBTUaLJywhPjYjCLNI24L+RenwfKowfIuVogSHvKtRZcH9ky3hINToeGeAVvUir1WwvssHORSffTtTd8FYyVNVUQQz6Dw8dVDNKv3zceBFpUtHSs1ZEPLsXVhxywFKKhwx7EAHu9zxvVCOBJDBkq9Eee4i0pyG7/2iClkLFYAoHbkGS9gECSZuJG9OkQW5EhLHzVbuA1wIzJtLVoQSmIe/n+5CzYBjlzJo5SI2IfoLNryZ5NxFvj3roQO4us6fTUP1plPwGrcBbUfpqa6m/5Xle9DHd87zFyKNbLbPBoAMJpH9AqYlXofZD0WIcG0Y9vgF4M9IKV6AikpEki2JjN2sJI3kHUerW4yi+CvpyxyHV4pdU6LTxN7oDLcp70CmeR43TLgbWQkPZuTZ2oQPSpKFWK9nhJSR994p57pVIq3qKyJ5aJDwExYdLYV/kYPwEsNbzvKiaPhXlCxyOVOwpaK+7kYP0J1TP4dWONIxz0CGzmPJhuQISGr9E4UnjPc6sw9TOyVyL8oeXEJy4vSi/+C7P8zZNhFDWjTEHOafehU7AAqof/ijqE1034YdxYAdB4kMLQZFCpU+qXUhSxGEuqoC5yvO87TF7uifqr1VOK2hFCQzzkT3Yh+6bWYisC/3PmkzQ6HAIqZ43oE6XY0q8SaABtiHSvh4NVYuOL41DHpH0ZmTTPoxs3NRt2rKIiPul6FTME6TvbUOnV9t4J3hbmIM64e2wPmMrIu6I46Bak8TTfiBi3Oh/90F0wrdU4XNmoBvR3kf7sQbFNKMJ9bOBSxH5o+8ZKPK38tb3GSrxmQWUvPDZ8e51EXhIoh+JKp7+REC8Uo8hZC4uR87ZWUg6h4ie9j1Tcj0iCzMZ+CRydpgvOYwynfaf4GIvQ7aDsfnyiMRfJBKSSHtRqrbYusm+43/3YTQZsBrk7QS+XuLGzaORJ0cS5FrPQwO1d8S8foBAzS1HimKft92/ppnj3eMYTELOp8uR0zUpaZ9HVT4nIdOlaFVQ2vdMyfWIWZwjkepgTtA8Ook/geVgGMNiT0WxtMcJMowK/t/8NpZ6lvZiVH2xdZN8yVrX24DWKnyOhw7FUlJwyN+TL/uPPxIvXc2UyGXANwkf7EmJux7NfJ41kb220Ils6X9H2YFJSfssmjG9DDnlSpXyZf6ejFucLuRIMjNtzAZsRZ7hrnJfykcLGuR8FUHhsXn0o0qhkVBE2gtRk8UWqf6V4BB7EOiuwueABmUnJVep59chx89kFPf9LHLslPubRtreimzsXiyVtMg1l0IrOuhPRFJzPWFhUOwxgJxzH0eEn0oC0ha7ziw9ii3gTFQZEV2cdchJ0RX9chHshYi+kvCpmEfEvZagg2LmF6nCpPoQMh2Mh31hlT7nCkYTsxxRo48NSGsyKYOt/v9fi7yym5AGNeR/pwGkdq9Bh7MpoQt5ektccxxakGr7Kv9vbiQZaYdQ7/FLkRO2lyLpnmnfF+N95KJfwvfobUZ2xEJ0WhmS7YnisEehooF1VohgMgoNnIpO6iMIB8ILKIRxHVJ31vu/K7d5jYYd6MYyzf/mUZ1GA9EbtYBu+iRSJ4+ypz6Ophm+ZL1/C0pcuAd5lRcR9OV6Aamxq1GW10tYoZZx7LOp8DmP8nnHBoPIafVddMCsRmveCCWlIRTbyDyamv4JpKLsSVDLOB34J1Rz+zAiYQ7dhAcjj3LUa2d6034aDTTbDE1HWoNt6AbrJBgqVmm0M3oPPESoJxEh4hIVjGZ0G7LN7ySIDNjYhfZ9PXJmRnugjcIY97rHv8bzkcRNQtoBlAV1LWqn+jzK2GvY0OMo8ppF9jxvCM10vRTNTNkz8r4FSPW1EbfAZlE/g7zNjVKbO170IYJMRnHRuVXIb+5Fpk+B8J5sAi5BEvNspE5O81+3CeXt3uT/+wJ+N424a4vEXEe9IPqeBDFaMwDg5UjSnohIXK6Wtt+/3qtRhp5pLjFC2kYVEuVUqH7UyaIfkXh/wupYqRSzPLoBfoA65j2NVYHRqAuaAFsJEjXaiO8TNVFMQ57d6P5sRPtwL3IkzUCZTwWkEZi0yrJZRRXcv1a0Bq9ApD2e0sUCEJD2bmSG3Ybs835KSP9GQ8n4ln9a9qMY31o0IMnYHtHMFbNoA+j0s0unRnKmm5i0Zk23EWgfrfhxzwrD9Ie2kUf233a0Rxv9R1FUea88dMCcgrp+HEv5+mYTtrwdqcd3oHutoo3d6gUlJa9F4F1ooR5HWVino8WejVS/PDqxn0V20gqUqVXVHj51ii3I5i8QeFITw9+P+ejGfxFYVygU8pHn5zK6GL+ASj/Tbp9rulKejDzZyygvac39Zcry7kdagok5NyUSBan9G8LYRbei2b3TkNSYjBZxKzH2hvkbDiPYhlQ84wCcxthaysxDueFHowPy857nrbSe70S9laPF5f1o5mvFD9OEVWdtKIR4MpK0S4kfvGWjgA66XyHvsSkWCLXnadb7K1Gw2nJimV8NoBtwQ7n3xMHzvFa0mbuSvL7B0Ed48sMUVJS/OeEaLEWhuD1Qq6Ih4IPopvaQX+IcRjt61iDNqNbIoVjv6UjSHkVMDnEEw4i0P0ex3UeRxpL9YoEaInGmCVSUYCbkBIH60ywwCfF5RLAeJJGSjj5pI9i3TlQ00oVi55uQVDsk8p48UjmLVRpVAy0oQvFqVAC/hPJleXkUzroRhRSfJAitOdJGMCbyVhBD6EbqIbDdMls3WQVsRdKlBRFvHspGS4KVKAl/BjoEO1HM/VjkGDyQ8MT1ApJaNwHj6noxRnSi73MGmuFj5tKWQh5pcTei6MTjBKR1KIK0yAtB68xmPFX70PduQzd7XNF8MaxCobeDCezaHIrdxmEYhfseorrOw3bkSDsT9TwuNeISgnDiGuCHKB33GWrU87gRkCZ5DcY94rCOsRXZ+5PQTT8W8vajYvbjUZuWUqpoHmVALWecM5fHUAB/FrJpDyMoM4yDSbN8FsVob0JhyIZMYawmUiGvO03ZhlL3phMkKYwFW1DW225UKBKX6jiI4qH/QnXGxbQQSNoLkCZQ6iAxpH0GOaF+hki7HRdOHBeyIHmbCn7obStBosZ4elkVUKbUJ5F9eC5qBteGCPICsh+vQ4kZu81nVwCdqH/VOchZdhDJSPu0fz03+9e0EydpJwRH3nSwmcC73MIYukhaYTtTonkVqp7ZHx0CLyFyPEfQi6kSxO1A+exno75miyjtiDJleStR04UVyL5tirzjWsCRNx1sIRzrnYqk5ni8q32ot/YTxV5QjCBjSK7YB9m0b0dhqFI2LShycD+ytX+PKnxGJe84TAyOvOlgO7qhTdVPD5K+ieOwNZBYrSi54rWoNC8agorDLlQmeg1BWV5TFQvUEo686WAQJVTkEUm6gXme572QETVyb2TTnk8ySWtIuxylzq4j6EDpUCU48qaHrQTkHWustxroICDt36A4bTlH1G7UuG45TVqWlyYcedNDH+F2ONXoqJEEppvHGaiedjFSj0tJ2n4UP74GuIsipM2IFtGwcORND6a/UxciS8XnFpVxSJmhY2eifOjDKG/T7kCF/MtR14oNNHlZXppw5E0PLyFp1Usw+qRW2IsgueJwyqvHu1DXiuUo8WMDTVoAnyU48qYAP1FjO8GgLdNStdqYCfwV6st9NKVzj0GJFHeh/lB3ovCWc0RlBI686WEbAXlNUX410IZK80wR/DGULoI3/aF+j2YpxZLW2bPpw5E3PZh2OBDU9SZGggQLkzN9KiLtMspX+ewkKGS4E9XWOps2o3DkTQ/bUazXYAqyPStR1zwbtU69AA2T7ir98hHSXuP/62zaOoAjb3roQx01TJbVJJSbPJFuF71ILX4PGqLdS7x6bEjZT2DTOtLWGRx508MQUp0NulBXkfGQtwuNlzkfFQ6YsFOUuDZpb0eS9h5E2mbsJ1bXcORNF30E84PasUZgJiwaaEe9oc5DQ71mUHrCwA4kYb/t//sXLNI61BccedPFboJKm3aSe5xbUPH7O1DLmVkUmYBH4D2+C0naO5B0d+pxncORN13YZXKtqDSwFDrR5Ma/RgX48ylOWpBUvRfZtLfh4rQNBUfedGFm24JIOKXI69pRIfwZwDtRpU903IyByYj6Ixo3Y+ppR0jrbNrGgCNvSvCzrPoJyJsDeiITA1tR0cDpyBl1JMXL84x6bIrgb0PqcTM2+GsKOPKmBGsGlCHvSKKG/9x0lBX1bkpPzisg+/Uh5Ij6DaqndTZtg8ORN11EydvtP5YC70JqcqnmdAOoAd01aIbUczibtmngyJsuBggyqjxUDH8p6sq4F8XDPoNofs+1BKTdiSNtU8GRN10MEkheD82qPQuRNs6uHUSN5q5HHSNNs3JXMNCEcOStIhIkWkwiyDtuZfRYTgjGgpgJAz9DI0+cpG1yOPKmgx7g5cDFlJ6WYBqofxfN8/kTroWqgw9H3tqiHbWbeTuaMzSLeLvWjLr8CcF8WjcWxCEER97awEPjSN6Ekiz2o7gzaiPwC2TXPoJqft2EAYdRcOStPmYiR9Q/otYzpUaEbERtVx9ApB0q8VqHJocj7wRRwinVBRwF/D2aDh9XW1vwHy3+v6vRTB83VNqhLBx5K49WNBrkXDQZfi4irU1ckxW1ChUb7OP/fghHXIeEcOStLGYDrwEuJGhebsNMzluNEixWAh9H5PXw7WBn1zokgSNvZdCDGrxdCLzK/zmqIg+jkrwfonjtU8AB/utMK5xShfQODiE48iZECdt2DxT6eS9SkaP1tXmUUHEr8E3gPtRwPY/Iakr7nLh1GBMcecePHtTA/EPIMRVdS2PX3g98A/g16hZpT4Nvsd7nCOwwJjjyjh0tKNHiA2h2bW/keZPOuApV+/wXykGOa+naRvn5QA4OsXDkjaBMPvIs5EW+ENif+OKBLcCNwFUoMyqUg2w7ozzP6yDYA0N6B4dEcORNhk7UvPz9wGnETx4ww7i+glrPbKE8GdsIkja8BK93cBiBI295LEAOqfegIoKoR3gIqchXI0/yepJnRnUSqM0mjOTgkAiOvMXRDbwC+CfgBEYP5yqg6fb/BVyJVOSx9kDuQOQ1mVaOvA6J0bTkLWPbzkYFBP+AJuxFpe0gyj++AvgtMSpywkQLM1jbXIzLrnJIjKYlbxG0o6ZvHwGOY/TQ6TxKtPg2qvpZjRqnjxfdBHHhPG56gcMY4MgbYC6aPvD3BPnIBqYX8m3A5agn8jYmHpftJhzn3TnBv+fQRHDkld15NPBBVP3TSZi4eeSE+gbwA+DPWOrtePOQfbW9i0DyDqPMKweHRGga8haxcbtRgfzFKM84atvuBn4HfAGFgfqoXDinjdFlgtsr9LcdmgBNQ94YHIiypN7C6DEjedRO9Urg+6iJeaU9wZNRT2ZD3ujITweHkmhG8pqEi0vQJIJoIcEulGTxaVREsKNK1zGVcPO5PAo9OTgkQrORdzJKb/wIMI9ATTaG60bgq6hb4zoqYNuWQC+qSDKSdwA1nXNwSISGJW+MjXswgZrcE3luGM2vvRxJ3Up4kstdWy/BBHuQxHfkdUiMhiVvBAcBn0Ozf6LfeRuya78GPE189U81MI2gyboJRb3gumg4JEWjk7cTle19ktHeZOOU+n9oCsEmalsYMIPw5L9tOMnrMAY0BHmLhIH2QA3gPoDSHe0XDaIQ0KdRwsWIU6qGkm8W4aKEv+AcVg5jQEOQNwZ7AB8FziM8/6eAYqnXAl9H83/SKAboQjnTxtNdQGNNXGGCQ2I0Gnk91LXxEtTF0W5wXkB5yZehTKlaq8k2ZgDzCbSBPPJuOzgkRqOR90hkw55G+LsVgAf9535D+plMs1GdsCHvbtQqx8EhMeqWvBE7tw04CUnVowgnXhj79hI0+2ekcidFz+4cpDYb9KMKJQeHxKhb8lrIIeJ+CVhE2DG1G7gB+ASSbFmxKfciHCbahsZ3OjgkRr2TtwM4G/g3lIRhE7cPdW/8MrCGjPSH8jWGeYTt8eeRw8rBITHqirwRVbkdEfdzwL6Mrs65DJF3ZERmRhIgelHnSRNzHgaeoXo51A4NiroibwTHIYLuZ/2ugMh6BbCcZB0ca435hLWEQeAJoJCRw8WhTlCP5G1F84C+iLKmbGxERQc/IWMJD5bWsAAR2KAfNa9zcBgT6oK81o2fQwO9PovqcQ0KSMpeBvyYbHek2I+gfthoCk+mdzkO9Yq6IK+Fg1Ge8mHW7woo4eIS1Dd528gT2VNDpwCHEDS2K6Asr/WpXZFD3aKeyLsQSdZTCDundgCfQVlT22LelyXsDSwh3D3jEWBHBg8ah4wj0+S11OVpqKvjqwjnA+9A/aW+i68qZ5wEC5Gn2WAXmiLo4DBm1MMw5y5U1nc+QWzUjM9cjupwN5Lh8Zj+IdSCkkjMVEGj7j+YzlU51DvqgbxHABcR7n6RB25CLWs2kWHiWpiJcq/tqYBPAmsyri04ZBSZVJstdXkPNLz6IOvpPPAw8CmU8pivk5t/P3QQ2fHdu3CN1h3GiSxL3g5UTP9qwoUGLyCP8xNkJ1e5HFqR1LXju9uBO6gPrcEhg8gyeY8A3k14Fu4uZOP+njoZyuVrEVNRRliX/+sCGgv6cDpX5dAIyJza7N/sk9FM3AXWU3k0ke8/qA/Pso2FwDGEQ0R3IEebg8O4kFXJuxR4HWF1+S+o7G8d9aVq5hBxbZW5DzUFqBd73SGDyCJ5e9G0vtnW7waRxL0XVeHUBXwtYhZKLDHqfx55me9L6bIcGgSZIq9/sy8GTic8zWAt8D2ynbNcDIuQJmF7mX+FU5kdJojM2LyWrfsawjN8jNR9ivorm+tCUtduebMRkbduNAiHbCIz5PWxAN3sdgrk88BPqaN4qBWn3gf4K4J1HgbuBB6DunK4OWQQWVKbPZS0vz+BilkAVlCfUhfUW8vuq7UD+BGua4ZDBZAl8vagRAY7DXIn6vxYN1LXwjzgzQQjTQrASuAPqV2RQ0MhS+TdE0leW2XegLyy9SZycygzbKn1u37kdHsBnMrsMHFkyebdg3BSRgGpy2uhPm52y9Y9CFVBdfs/F1A6569xjiqHCiFLknc24Xm1edTLuN7swy7gTcDh1u/6getQC1oHh4ogS+SdRjiPeRg/m6oepK6FI4FzCVrd5FGDuZ9SP4UUDnWALKnNOUbPz+1L6VrGBEtdngpcSKD+m6mEX8XvU1VnB5FDhpElyesR7k0V/TnraAPeiJJMzKGYR3buL3FS16HCyBJ5dxG+wVuQKp1ZeJ5npG4OeCWqM7ZnEK1G/aU3p3B5Dg2OLJF3C9YEP0SIRUBHZMxJFnEoaj27J9IWTHO8rwMP4NvtTmV2qCSyRN5VhIdttaA46fz4l6cHS+KCmgZcAbyMcL3uj4D/JHwgOThUDFki71pUKmeLJ5Pr3JbKFZXHYWhg90mE85fvBS4HXkznshyaAVki71bU3mbA+l07SnbYJyLtUkHExj0NuIpwL+k8Ssb4KIpRZ2k6oUODIUvkzQO34WdU+TDFCh9BucJZMH5no3DQlUhVtlu5Pofa1N6N8y47VBlZIi9obs+NhJvL5VDSw4eBGZ5Qswsy0tbzvB6kwl+FxqvsS7B+pjvG+1EhxW6QxHVS16Fa8LJ0c/msPAL4FuGGbSB1+sfA59F8nyGojkoaORwmIcfZ3wJnokYB9qE3hOpzLwL+F6VCUq1rc3AwyBp5Qf2azwS+AuxFmMB5lB+8HLgeZS1VxK6MEDaHmqSfipIulqKYs03aApKw/w1cilIgBypxLQ4OSZBF8oKS+9+GpgLOiLysgKTdGuTg+h8US30WhWUKUJxARVRuD9myhyCJvwzZ2nujwyT6pjzqZnk9sn1XY1ULZWlNHRoXmSIvhMg1Hdm6H0Oqahzr8khN3YC8u3/y/78BJUnsQEQ3NnQb8mB3oXK9Xv9vLwAOQGSd4r8u7vMK6IC4G4WCbsdqipe1tXRobGSZvKCuGqej7KXFlC+kyPuPYaTSDiDyDiEytvh/owOR2BRDlHPcGRX5KeA7yKm2johHOWtr6dDYyBx5DSwSdwIHIofRW1HRfrWLFsyiGMm+EmVM3YIywUayprK6fg6Nj3ogL4iok1FG0xuAs1Dct53Kh7uM1H4e9Zu6GXV8XE9M7Dar6+fQ+MgseQ1iSNyDbNRlKO56JJLGXchWbSGQyqZIwPxr/848DFm3owSRB5BN+wByivURaV2T9TVzaA5knrwGRbzEk1A4aQEa5rUQ9UqeiSR1J7JrPQJ7eDdyZG1ChRBrkCq81n9sJJyiOYJ6WSuH5kDdkNdGmQyrHCJtD4FjyrxhAJF3p/8oOya0HtfHoTnw/wFPENxMjzkwhQAAAABJRU5ErkJggg==;opacity=30;" parent="1" vertex="1">
          <mxGeometry x="803" y="-23" width="21.08" height="20" as="geometry" />
        </mxCell>
        <mxCell id="sGpQJkMBHfHeCSqF3O8G-5" value="&lt;div style=&quot;&quot;&gt;Attention : Some components may need additional tube cutting in order to fit properly!&lt;/div&gt;" style="text;strokeColor=none;align=left;fillColor=none;html=1;verticalAlign=middle;whiteSpace=wrap;rounded=0;" parent="1" vertex="1">
          <mxGeometry x="6" y="-74" width="466" height="20" as="geometry" />
        </mxCell>
        <mxCell id="oaZHDNKOcv9WTvhMU7lw-145" value="" style="group" parent="1" vertex="1" connectable="0">
          <mxGeometry x="119.83857671372311" y="-397" width="206.59852817429345" height="262.59" as="geometry" />
        </mxCell>
        <mxCell id="oaZHDNKOcv9WTvhMU7lw-128" value="" style="group" parent="oaZHDNKOcv9WTvhMU7lw-145" vertex="1" connectable="0">
          <mxGeometry width="206.59852817429345" height="234.44" as="geometry" />
        </mxCell>
        <mxCell id="oaZHDNKOcv9WTvhMU7lw-121" value="" style="group" parent="oaZHDNKOcv9WTvhMU7lw-128" vertex="1" connectable="0">
          <mxGeometry x="37.161423286276886" y="64.32999999999998" width="145.81" height="170.11" as="geometry" />
        </mxCell>
        <mxCell id="oaZHDNKOcv9WTvhMU7lw-119" value="" style="verticalLabelPosition=bottom;verticalAlign=top;html=1;shape=hexagon;perimeter=hexagonPerimeter2;arcSize=6;size=0.27;strokeWidth=1.5;fillColor=none;rotation=90;" parent="oaZHDNKOcv9WTvhMU7lw-121" vertex="1">
          <mxGeometry x="-12.149073477239167" y="12.149205821201575" width="170.10814695447843" height="145.81158835759686" as="geometry" />
        </mxCell>
        <mxCell id="oaZHDNKOcv9WTvhMU7lw-120" value="" style="ellipse;whiteSpace=wrap;html=1;aspect=fixed;pointerEvents=0;fontFamily=Helvetica;fontSize=12;fontColor=default;fillColor=none;gradientColor=none;strokeWidth=1.5;" parent="oaZHDNKOcv9WTvhMU7lw-121" vertex="1">
          <mxGeometry x="13.279784664836058" y="25.43716236337398" width="119.23879621170039" height="119.23879621170039" as="geometry" />
        </mxCell>
        <mxCell id="oaZHDNKOcv9WTvhMU7lw-136" value="" style="ellipse;whiteSpace=wrap;html=1;aspect=fixed;fontColor=#000000;fillColor=#000000;container=0;" parent="oaZHDNKOcv9WTvhMU7lw-121" vertex="1">
          <mxGeometry x="69.24000000000001" y="81.4" width="7.31" height="7.31" as="geometry" />
        </mxCell>
        <mxCell id="oaZHDNKOcv9WTvhMU7lw-122" value="&lt;font style=&quot;font-size: 20px;&quot;&gt;Tube Top End View&lt;br&gt;&lt;/font&gt;" style="text;align=center;html=1;verticalAlign=middle;rounded=0;shadow=0;glass=0;labelBorderColor=none;labelBackgroundColor=none;whiteSpace=wrap;fontStyle=1;container=0;" parent="oaZHDNKOcv9WTvhMU7lw-128" vertex="1">
          <mxGeometry width="206.59852817429345" height="38.26146788990826" as="geometry" />
        </mxCell>
        <mxCell id="oaZHDNKOcv9WTvhMU7lw-137" value="" style="endArrow=classic;startArrow=classic;html=1;rounded=0;movable=1;resizable=1;rotatable=1;deletable=1;editable=1;locked=0;connectable=1;sourcePerimeterSpacing=0;strokeWidth=1.5;" parent="oaZHDNKOcv9WTvhMU7lw-145" edge="1">
          <mxGeometry width="50" height="50" relative="1" as="geometry">
            <mxPoint x="116.1637544638906" y="149.32999999999998" as="sourcePoint" />
            <mxPoint x="166.1614232862769" y="149.32999999999998" as="targetPoint" />
          </mxGeometry>
        </mxCell>
        <mxCell id="oaZHDNKOcv9WTvhMU7lw-138" value="&lt;span style=&quot;font-weight: normal; font-size: 16px;&quot;&gt;&lt;font style=&quot;font-size: 16px;&quot;&gt;5 mm&lt;/font&gt;&lt;/span&gt;" style="text;align=center;html=1;verticalAlign=middle;rounded=0;shadow=0;glass=0;labelBorderColor=none;labelBackgroundColor=none;whiteSpace=wrap;fontStyle=1;container=0;fontSize=16;" parent="oaZHDNKOcv9WTvhMU7lw-145" vertex="1">
          <mxGeometry x="106.16142328627689" y="123.32999999999998" width="61.18" height="17.26" as="geometry" />
        </mxCell>
        <mxCell id="oaZHDNKOcv9WTvhMU7lw-139" value="120&lt;strong style=&quot;font-size: 9px;&quot;&gt;°&lt;/strong&gt;" style="text;align=center;html=1;verticalAlign=middle;rounded=0;shadow=0;glass=0;labelBorderColor=none;labelBackgroundColor=none;whiteSpace=wrap;fontStyle=0;container=0;rotation=0;fontSize=9;" parent="oaZHDNKOcv9WTvhMU7lw-145" vertex="1">
          <mxGeometry x="101.16142328627689" y="211.32999999999998" width="18.19" height="9.3" as="geometry" />
        </mxCell>
        <mxCell id="oaZHDNKOcv9WTvhMU7lw-140" value="" style="verticalLabelPosition=bottom;verticalAlign=top;html=1;shape=mxgraph.basic.arc;startAngle=0.8860129297857114;endAngle=0.13591715429368187;rotation=-3;strokeWidth=1.5;" parent="oaZHDNKOcv9WTvhMU7lw-145" vertex="1">
          <mxGeometry x="95.16142328627689" y="222.32999999999998" width="30" height="35" as="geometry" />
        </mxCell>
        <mxCell id="oaZHDNKOcv9WTvhMU7lw-141" value="" style="endArrow=classic;startArrow=classic;html=1;rounded=0;movable=1;resizable=1;rotatable=1;deletable=1;editable=1;locked=0;connectable=1;sourcePerimeterSpacing=0;strokeWidth=1.5;" parent="oaZHDNKOcv9WTvhMU7lw-145" edge="1">
          <mxGeometry width="50" height="50" relative="1" as="geometry">
            <mxPoint x="41.161423286276886" y="241.32999999999998" as="sourcePoint" />
            <mxPoint x="180.1614232862769" y="241.32999999999998" as="targetPoint" />
          </mxGeometry>
        </mxCell>
        <mxCell id="oaZHDNKOcv9WTvhMU7lw-142" value="&lt;span style=&quot;font-weight: normal; font-size: 16px;&quot;&gt;&lt;font style=&quot;font-size: 16px;&quot;&gt;11.7 mm&lt;/font&gt;&lt;/span&gt;" style="text;align=center;html=1;verticalAlign=middle;rounded=0;shadow=0;glass=0;labelBorderColor=none;labelBackgroundColor=none;whiteSpace=wrap;fontStyle=1;container=0;fontSize=16;" parent="oaZHDNKOcv9WTvhMU7lw-145" vertex="1">
          <mxGeometry x="74.16142328627689" y="245.32999999999998" width="72" height="17.26" as="geometry" />
        </mxCell>
        <mxCell id="oaZHDNKOcv9WTvhMU7lw-158" value="" style="group" parent="1" vertex="1" connectable="0">
          <mxGeometry x="494" y="-397" width="219.14" height="234.43907347723928" as="geometry" />
        </mxCell>
        <mxCell id="oaZHDNKOcv9WTvhMU7lw-124" value="" style="verticalLabelPosition=bottom;verticalAlign=top;html=1;shape=hexagon;perimeter=hexagonPerimeter2;arcSize=6;size=0.27;strokeWidth=1.5;fillColor=none;rotation=90;container=0;" parent="oaZHDNKOcv9WTvhMU7lw-158" vertex="1">
          <mxGeometry x="27.31522070155927" y="76.47920582120156" width="170.10814695447843" height="145.81158835759686" as="geometry" />
        </mxCell>
        <mxCell id="oaZHDNKOcv9WTvhMU7lw-126" value="&lt;font style=&quot;font-size: 20px;&quot;&gt;Tube Bottom End View&lt;br&gt;&lt;/font&gt;" style="text;align=center;html=1;verticalAlign=middle;rounded=0;shadow=0;glass=0;labelBorderColor=none;labelBackgroundColor=none;whiteSpace=wrap;fontStyle=1;container=0;" parent="oaZHDNKOcv9WTvhMU7lw-158" vertex="1">
          <mxGeometry width="219.14" height="38.26" as="geometry" />
        </mxCell>
        <mxCell id="oaZHDNKOcv9WTvhMU7lw-125" value="" style="ellipse;whiteSpace=wrap;html=1;aspect=fixed;pointerEvents=0;fontFamily=Helvetica;fontSize=12;fontColor=default;fillColor=none;gradientColor=none;strokeWidth=1.5;container=0;dashed=1;dashPattern=1 1;" parent="oaZHDNKOcv9WTvhMU7lw-158" vertex="1">
          <mxGeometry x="100.02999999999997" y="164.32999999999998" width="24.68" height="24.68" as="geometry" />
        </mxCell>
        <mxCell id="oaZHDNKOcv9WTvhMU7lw-131" value="" style="verticalLabelPosition=bottom;verticalAlign=top;html=1;shape=mxgraph.basic.arc;startAngle=0.8578912138079359;endAngle=0.14235658795843956;pointerEvents=0;fontFamily=Helvetica;fontSize=12;fontColor=default;fillColor=none;gradientColor=none;strokeWidth=1.5;" parent="oaZHDNKOcv9WTvhMU7lw-158" vertex="1">
          <mxGeometry x="52.75" y="89.76999999999998" width="119.2911" height="119.2911" as="geometry" />
        </mxCell>
        <mxCell id="oaZHDNKOcv9WTvhMU7lw-132" value="" style="endArrow=none;html=1;rounded=0;fontFamily=Helvetica;fontSize=12;fontColor=default;strokeWidth=1.5;" parent="oaZHDNKOcv9WTvhMU7lw-158" edge="1">
          <mxGeometry width="50" height="50" relative="1" as="geometry">
            <mxPoint x="152" y="104.82999999999998" as="sourcePoint" />
            <mxPoint x="152" y="89.32999999999998" as="targetPoint" />
          </mxGeometry>
        </mxCell>
        <mxCell id="oaZHDNKOcv9WTvhMU7lw-134" value="" style="endArrow=none;html=1;rounded=0;fontFamily=Helvetica;fontSize=12;fontColor=default;strokeWidth=1.5;" parent="oaZHDNKOcv9WTvhMU7lw-158" edge="1">
          <mxGeometry width="50" height="50" relative="1" as="geometry">
            <mxPoint x="73" y="104.32999999999998" as="sourcePoint" />
            <mxPoint x="73" y="89.32999999999998" as="targetPoint" />
          </mxGeometry>
        </mxCell>
        <mxCell id="oaZHDNKOcv9WTvhMU7lw-135" value="" style="endArrow=none;html=1;rounded=0;fontFamily=Helvetica;fontSize=12;fontColor=default;strokeWidth=1.5;" parent="oaZHDNKOcv9WTvhMU7lw-158" edge="1">
          <mxGeometry width="50" height="50" relative="1" as="geometry">
            <mxPoint x="65.35000000000002" y="112.32999999999998" as="sourcePoint" />
            <mxPoint x="159.47500000000002" y="112.32999999999998" as="targetPoint" />
          </mxGeometry>
        </mxCell>
        <mxCell id="oaZHDNKOcv9WTvhMU7lw-146" value="" style="endArrow=classic;startArrow=classic;html=1;rounded=0;movable=1;resizable=1;rotatable=1;deletable=1;editable=1;locked=0;connectable=1;sourcePerimeterSpacing=0;strokeWidth=1.5;endSize=4;startSize=4;" parent="oaZHDNKOcv9WTvhMU7lw-158" edge="1">
          <mxGeometry width="50" height="50" relative="1" as="geometry">
            <mxPoint x="101" y="197" as="sourcePoint" />
            <mxPoint x="124" y="197" as="targetPoint" />
          </mxGeometry>
        </mxCell>
        <mxCell id="oaZHDNKOcv9WTvhMU7lw-147" value="" style="ellipse;whiteSpace=wrap;html=1;aspect=fixed;fontColor=#000000;fillColor=#000000;container=0;" parent="oaZHDNKOcv9WTvhMU7lw-158" vertex="1">
          <mxGeometry x="110.01999999999998" y="174.32" width="4.69" height="4.69" as="geometry" />
        </mxCell>
        <mxCell id="oaZHDNKOcv9WTvhMU7lw-150" value="" style="endArrow=none;html=1;rounded=0;dashed=1;dashPattern=1 2;" parent="oaZHDNKOcv9WTvhMU7lw-158" edge="1">
          <mxGeometry width="50" height="50" relative="1" as="geometry">
            <mxPoint x="112.5" y="173" as="sourcePoint" />
            <mxPoint x="112.5" y="65" as="targetPoint" />
          </mxGeometry>
        </mxCell>
        <mxCell id="oaZHDNKOcv9WTvhMU7lw-151" value="" style="endArrow=classic;startArrow=classic;html=1;rounded=0;movable=1;resizable=1;rotatable=1;deletable=1;editable=1;locked=0;connectable=1;sourcePerimeterSpacing=0;strokeWidth=1.5;endSize=4;startSize=4;" parent="oaZHDNKOcv9WTvhMU7lw-158" edge="1">
          <mxGeometry width="50" height="50" relative="1" as="geometry">
            <mxPoint x="117" y="177" as="sourcePoint" />
            <mxPoint x="182" y="177" as="targetPoint" />
          </mxGeometry>
        </mxCell>
        <mxCell id="oaZHDNKOcv9WTvhMU7lw-152" value="&lt;span style=&quot;font-weight: normal; font-size: 16px;&quot;&gt;&lt;font style=&quot;font-size: 16px;&quot;&gt;5.85 mm&lt;/font&gt;&lt;/span&gt;" style="text;align=center;html=1;verticalAlign=middle;rounded=0;shadow=0;glass=0;labelBorderColor=none;labelBackgroundColor=none;whiteSpace=wrap;fontStyle=1;container=0;fontSize=16;" parent="oaZHDNKOcv9WTvhMU7lw-158" vertex="1">
          <mxGeometry x="117" y="151" width="68" height="17.26" as="geometry" />
        </mxCell>
        <mxCell id="oaZHDNKOcv9WTvhMU7lw-153" value="&lt;span style=&quot;font-weight: normal; font-size: 16px;&quot;&gt;&lt;font style=&quot;font-size: 16px;&quot;&gt;2.5 mm&lt;/font&gt;&lt;/span&gt;" style="text;align=center;html=1;verticalAlign=middle;rounded=0;shadow=0;glass=0;labelBorderColor=none;labelBackgroundColor=none;whiteSpace=wrap;fontStyle=1;container=0;fontSize=16;" parent="oaZHDNKOcv9WTvhMU7lw-158" vertex="1">
          <mxGeometry x="79" y="200" width="68" height="17.26" as="geometry" />
        </mxCell>
        <mxCell id="oaZHDNKOcv9WTvhMU7lw-154" value="" style="endArrow=classic;startArrow=classic;html=1;rounded=0;movable=1;resizable=1;rotatable=1;deletable=1;editable=1;locked=0;connectable=1;sourcePerimeterSpacing=0;strokeWidth=1.5;endSize=4;startSize=4;" parent="oaZHDNKOcv9WTvhMU7lw-158" edge="1">
          <mxGeometry width="50" height="50" relative="1" as="geometry">
            <mxPoint x="67" y="121" as="sourcePoint" />
            <mxPoint x="157" y="121" as="targetPoint" />
          </mxGeometry>
        </mxCell>
        <mxCell id="oaZHDNKOcv9WTvhMU7lw-155" value="&lt;span style=&quot;font-weight: normal; font-size: 16px;&quot;&gt;&lt;font style=&quot;font-size: 16px;&quot;&gt;8.3 mm&lt;/font&gt;&lt;/span&gt;" style="text;align=center;html=1;verticalAlign=middle;rounded=0;shadow=0;glass=0;labelBorderColor=none;labelBackgroundColor=none;whiteSpace=wrap;fontStyle=1;container=0;fontSize=16;" parent="oaZHDNKOcv9WTvhMU7lw-158" vertex="1">
          <mxGeometry x="81" y="124" width="68" height="17.26" as="geometry" />
        </mxCell>
        <mxCell id="oaZHDNKOcv9WTvhMU7lw-156" value="" style="endArrow=classic;startArrow=classic;html=1;rounded=0;movable=1;resizable=1;rotatable=1;deletable=1;editable=1;locked=0;connectable=1;sourcePerimeterSpacing=0;strokeWidth=1.5;endSize=4;startSize=4;" parent="oaZHDNKOcv9WTvhMU7lw-158" edge="1">
          <mxGeometry width="50" height="50" relative="1" as="geometry">
            <mxPoint x="76" y="90" as="sourcePoint" />
            <mxPoint x="149" y="90" as="targetPoint" />
          </mxGeometry>
        </mxCell>
        <mxCell id="oaZHDNKOcv9WTvhMU7lw-157" value="&lt;span style=&quot;font-weight: normal; font-size: 11px;&quot;&gt;&lt;font style=&quot;font-size: 11px;&quot;&gt;7.5 mm&lt;/font&gt;&lt;/span&gt;" style="text;align=center;html=1;verticalAlign=middle;rounded=0;shadow=0;glass=0;labelBorderColor=none;labelBackgroundColor=none;whiteSpace=wrap;fontStyle=1;container=0;fontSize=11;" parent="oaZHDNKOcv9WTvhMU7lw-158" vertex="1">
          <mxGeometry x="80" y="74" width="68" height="17.26" as="geometry" />
        </mxCell>
        <mxCell id="oaZHDNKOcv9WTvhMU7lw-235" value="" style="group" parent="1" vertex="1" connectable="0">
          <mxGeometry x="119.83857671372311" y="-1018.1082" width="250.1614232862769" height="589.1070000000001" as="geometry" />
        </mxCell>
        <mxCell id="oaZHDNKOcv9WTvhMU7lw-222" value="" style="ellipse;whiteSpace=wrap;html=1;aspect=fixed;fillColor=none;dashed=1;strokeColor=#303030;" parent="oaZHDNKOcv9WTvhMU7lw-235" vertex="1">
          <mxGeometry x="12.161423286276886" y="54.10820000000001" width="100" height="100" as="geometry" />
        </mxCell>
        <mxCell id="oaZHDNKOcv9WTvhMU7lw-169" value="" style="ellipse;whiteSpace=wrap;html=1;aspect=fixed;fillColor=none;dashed=1;strokeColor=#303030;" parent="oaZHDNKOcv9WTvhMU7lw-235" vertex="1">
          <mxGeometry x="36.46032328627689" y="404.1082" width="23" height="23" as="geometry" />
        </mxCell>
        <mxCell id="oaZHDNKOcv9WTvhMU7lw-159" value="" style="ellipse;whiteSpace=wrap;html=1;aspect=fixed;fillColor=none;dashed=1;strokeColor=#303030;" parent="oaZHDNKOcv9WTvhMU7lw-235" vertex="1">
          <mxGeometry x="20.161423286276886" y="277.1082" width="23" height="23" as="geometry" />
        </mxCell>
        <mxCell id="K3vBRPoJTIptSZS2Vwr1-38" value="&lt;font style=&quot;font-size: 20px;&quot;&gt;Tube Side View&lt;br&gt;&lt;/font&gt;" style="text;align=center;html=1;verticalAlign=middle;rounded=0;shadow=0;glass=0;labelBorderColor=none;labelBackgroundColor=none;whiteSpace=wrap;fontStyle=1;container=0;" parent="oaZHDNKOcv9WTvhMU7lw-235" vertex="1">
          <mxGeometry width="206.59852817429345" height="38.26146788990826" as="geometry" />
        </mxCell>
        <mxCell id="oaZHDNKOcv9WTvhMU7lw-160" value="" style="endArrow=none;startArrow=classic;html=1;rounded=0;movable=1;resizable=1;rotatable=1;deletable=1;editable=1;locked=0;connectable=1;sourcePerimeterSpacing=0;strokeWidth=1;endSize=5;startSize=5;endFill=0;strokeColor=#323232;dashed=1;" parent="oaZHDNKOcv9WTvhMU7lw-235" edge="1">
          <mxGeometry width="50" height="50" relative="1" as="geometry">
            <mxPoint x="123.16142328627689" y="287.1082" as="sourcePoint" />
            <mxPoint x="47.161423286276886" y="287.1082" as="targetPoint" />
          </mxGeometry>
        </mxCell>
        <mxCell id="oaZHDNKOcv9WTvhMU7lw-161" value="" style="ellipse;whiteSpace=wrap;html=1;aspect=fixed;fillColor=none;dashed=1;strokeColor=#303030;" parent="oaZHDNKOcv9WTvhMU7lw-235" vertex="1">
          <mxGeometry x="128.16122328627694" y="253.10700000000008" width="73" height="73" as="geometry" />
        </mxCell>
        <mxCell id="oaZHDNKOcv9WTvhMU7lw-163" value="" style="rounded=0;whiteSpace=wrap;html=1;pointerEvents=0;fontFamily=Helvetica;fontSize=12;fontColor=default;fillColor=none;gradientColor=none;strokeWidth=1;" parent="oaZHDNKOcv9WTvhMU7lw-235" vertex="1">
          <mxGeometry x="141.4114232862769" y="271.1082" width="46.5" height="37" as="geometry" />
        </mxCell>
        <mxCell id="oaZHDNKOcv9WTvhMU7lw-164" value="" style="endArrow=none;html=1;rounded=0;fontFamily=Helvetica;fontSize=12;fontColor=default;" parent="oaZHDNKOcv9WTvhMU7lw-235" edge="1">
          <mxGeometry width="50" height="50" relative="1" as="geometry">
            <mxPoint x="164.1614232862769" y="308.1082" as="sourcePoint" />
            <mxPoint x="164.1614232862769" y="271.1082" as="targetPoint" />
          </mxGeometry>
        </mxCell>
        <mxCell id="oaZHDNKOcv9WTvhMU7lw-165" value="" style="ellipse;whiteSpace=wrap;html=1;aspect=fixed;pointerEvents=0;fontFamily=Helvetica;fontSize=12;fontColor=default;fillColor=none;gradientColor=none;dashed=1;dashPattern=1 1;" parent="oaZHDNKOcv9WTvhMU7lw-235" vertex="1">
          <mxGeometry x="170.1614232862769" y="283.6082" width="12" height="12" as="geometry" />
        </mxCell>
        <mxCell id="oaZHDNKOcv9WTvhMU7lw-166" value="" style="ellipse;whiteSpace=wrap;html=1;aspect=fixed;pointerEvents=0;fontFamily=Helvetica;fontSize=12;fontColor=default;fillColor=none;gradientColor=none;dashed=1;dashPattern=1 1;" parent="oaZHDNKOcv9WTvhMU7lw-235" vertex="1">
          <mxGeometry x="147.09002328627685" y="283.6082" width="12" height="12" as="geometry" />
        </mxCell>
        <mxCell id="oaZHDNKOcv9WTvhMU7lw-167" value="" style="ellipse;whiteSpace=wrap;html=1;aspect=fixed;fontColor=#000000;fillColor=#000000;container=0;" parent="oaZHDNKOcv9WTvhMU7lw-235" vertex="1">
          <mxGeometry x="175.5314232862769" y="288.9682" width="1.27" height="1.27" as="geometry" />
        </mxCell>
        <mxCell id="oaZHDNKOcv9WTvhMU7lw-168" value="" style="ellipse;whiteSpace=wrap;html=1;aspect=fixed;fontColor=#000000;fillColor=#000000;container=0;" parent="oaZHDNKOcv9WTvhMU7lw-235" vertex="1">
          <mxGeometry x="152.4514232862769" y="288.9682" width="1.27" height="1.27" as="geometry" />
        </mxCell>
        <mxCell id="oaZHDNKOcv9WTvhMU7lw-171" value="" style="endArrow=none;startArrow=classic;html=1;rounded=0;movable=1;resizable=1;rotatable=1;deletable=1;editable=1;locked=0;connectable=1;sourcePerimeterSpacing=0;strokeWidth=1;endSize=5;startSize=5;endFill=0;strokeColor=#323232;dashed=1;" parent="oaZHDNKOcv9WTvhMU7lw-235" edge="1">
          <mxGeometry width="50" height="50" relative="1" as="geometry">
            <mxPoint x="138.1614232862769" y="416.1082" as="sourcePoint" />
            <mxPoint x="62.161423286276886" y="416.1082" as="targetPoint" />
          </mxGeometry>
        </mxCell>
        <mxCell id="oaZHDNKOcv9WTvhMU7lw-172" value="" style="ellipse;whiteSpace=wrap;html=1;aspect=fixed;fillColor=none;dashed=1;strokeColor=#303030;" parent="oaZHDNKOcv9WTvhMU7lw-235" vertex="1">
          <mxGeometry x="143.16122328627694" y="382.1070000000001" width="73" height="73" as="geometry" />
        </mxCell>
        <mxCell id="oaZHDNKOcv9WTvhMU7lw-173" value="" style="rounded=0;whiteSpace=wrap;html=1;pointerEvents=0;fontFamily=Helvetica;fontSize=12;fontColor=default;fillColor=none;gradientColor=none;strokeWidth=1;" parent="oaZHDNKOcv9WTvhMU7lw-235" vertex="1">
          <mxGeometry x="156.4114232862769" y="400.1082" width="46.5" height="37" as="geometry" />
        </mxCell>
        <mxCell id="oaZHDNKOcv9WTvhMU7lw-174" value="" style="endArrow=none;html=1;rounded=0;fontFamily=Helvetica;fontSize=12;fontColor=default;" parent="oaZHDNKOcv9WTvhMU7lw-235" edge="1">
          <mxGeometry width="50" height="50" relative="1" as="geometry">
            <mxPoint x="179.1614232862769" y="437.1082" as="sourcePoint" />
            <mxPoint x="179.1614232862769" y="400.1082" as="targetPoint" />
          </mxGeometry>
        </mxCell>
        <mxCell id="oaZHDNKOcv9WTvhMU7lw-175" value="" style="ellipse;whiteSpace=wrap;html=1;aspect=fixed;pointerEvents=0;fontFamily=Helvetica;fontSize=12;fontColor=default;fillColor=none;gradientColor=none;dashed=1;dashPattern=1 1;" parent="oaZHDNKOcv9WTvhMU7lw-235" vertex="1">
          <mxGeometry x="185.1614232862769" y="412.6082" width="12" height="12" as="geometry" />
        </mxCell>
        <mxCell id="oaZHDNKOcv9WTvhMU7lw-176" value="" style="ellipse;whiteSpace=wrap;html=1;aspect=fixed;pointerEvents=0;fontFamily=Helvetica;fontSize=12;fontColor=default;fillColor=none;gradientColor=none;dashed=1;dashPattern=1 1;" parent="oaZHDNKOcv9WTvhMU7lw-235" vertex="1">
          <mxGeometry x="162.09002328627685" y="412.6082" width="12" height="12" as="geometry" />
        </mxCell>
        <mxCell id="oaZHDNKOcv9WTvhMU7lw-177" value="" style="ellipse;whiteSpace=wrap;html=1;aspect=fixed;fontColor=#000000;fillColor=#000000;container=0;" parent="oaZHDNKOcv9WTvhMU7lw-235" vertex="1">
          <mxGeometry x="190.5314232862769" y="417.9682" width="1.27" height="1.27" as="geometry" />
        </mxCell>
        <mxCell id="oaZHDNKOcv9WTvhMU7lw-178" value="" style="ellipse;whiteSpace=wrap;html=1;aspect=fixed;fontColor=#000000;fillColor=#000000;container=0;" parent="oaZHDNKOcv9WTvhMU7lw-235" vertex="1">
          <mxGeometry x="167.4514232862769" y="417.9682" width="1.27" height="1.27" as="geometry" />
        </mxCell>
        <mxCell id="oaZHDNKOcv9WTvhMU7lw-180" value="" style="endArrow=classic;startArrow=classic;html=1;rounded=0;movable=1;resizable=1;rotatable=1;deletable=1;editable=1;locked=0;connectable=1;sourcePerimeterSpacing=0;strokeWidth=1.5;endSize=4;startSize=4;" parent="oaZHDNKOcv9WTvhMU7lw-235" edge="1">
          <mxGeometry width="50" height="50" relative="1" as="geometry">
            <mxPoint x="191.1614232862769" y="449.1082" as="sourcePoint" />
            <mxPoint x="191.1614232862769" y="420.1082" as="targetPoint" />
          </mxGeometry>
        </mxCell>
        <mxCell id="oaZHDNKOcv9WTvhMU7lw-182" value="" style="endArrow=none;html=1;rounded=0;fontFamily=Helvetica;fontSize=12;fontColor=default;" parent="oaZHDNKOcv9WTvhMU7lw-235" edge="1">
          <mxGeometry width="50" height="50" relative="1" as="geometry">
            <mxPoint x="177.1614232862769" y="451.1082" as="sourcePoint" />
            <mxPoint x="192.1614232862769" y="451.1082" as="targetPoint" />
          </mxGeometry>
        </mxCell>
        <mxCell id="oaZHDNKOcv9WTvhMU7lw-183" value="&lt;span style=&quot;font-weight: 400; font-size: 8px;&quot;&gt;51.3 mm From Bottom&lt;/span&gt;" style="text;align=center;html=1;verticalAlign=middle;rounded=0;shadow=0;glass=0;labelBorderColor=none;labelBackgroundColor=none;whiteSpace=wrap;fontStyle=1;container=0;fontSize=8;" parent="oaZHDNKOcv9WTvhMU7lw-235" vertex="1">
          <mxGeometry x="153.1614232862769" y="458.1082" width="54" height="17.26" as="geometry" />
        </mxCell>
        <mxCell id="oaZHDNKOcv9WTvhMU7lw-185" value="" style="endArrow=classic;startArrow=classic;html=1;rounded=0;movable=1;resizable=1;rotatable=1;deletable=1;editable=1;locked=0;connectable=1;sourcePerimeterSpacing=0;strokeWidth=1.5;endSize=4;startSize=4;" parent="oaZHDNKOcv9WTvhMU7lw-235" edge="1">
          <mxGeometry width="50" height="50" relative="1" as="geometry">
            <mxPoint x="176.1614232862769" y="320.1082" as="sourcePoint" />
            <mxPoint x="176.1614232862769" y="291.1082" as="targetPoint" />
          </mxGeometry>
        </mxCell>
        <mxCell id="oaZHDNKOcv9WTvhMU7lw-186" value="" style="endArrow=none;html=1;rounded=0;fontFamily=Helvetica;fontSize=12;fontColor=default;" parent="oaZHDNKOcv9WTvhMU7lw-235" edge="1">
          <mxGeometry width="50" height="50" relative="1" as="geometry">
            <mxPoint x="162.1614232862769" y="322.1082" as="sourcePoint" />
            <mxPoint x="177.1614232862769" y="322.1082" as="targetPoint" />
          </mxGeometry>
        </mxCell>
        <mxCell id="oaZHDNKOcv9WTvhMU7lw-187" value="&lt;span style=&quot;font-weight: 400; font-size: 8px;&quot;&gt;91.3 mm From Bottom&lt;/span&gt;" style="text;align=center;html=1;verticalAlign=middle;rounded=0;shadow=0;glass=0;labelBorderColor=none;labelBackgroundColor=none;whiteSpace=wrap;fontStyle=1;container=0;fontSize=8;" parent="oaZHDNKOcv9WTvhMU7lw-235" vertex="1">
          <mxGeometry x="138.1614232862769" y="329.1082" width="54" height="17.26" as="geometry" />
        </mxCell>
        <mxCell id="oaZHDNKOcv9WTvhMU7lw-188" value="" style="endArrow=classic;startArrow=classic;html=1;rounded=0;movable=1;resizable=1;rotatable=1;deletable=1;editable=1;locked=0;connectable=1;sourcePerimeterSpacing=0;strokeWidth=1;endSize=2;startSize=2;" parent="oaZHDNKOcv9WTvhMU7lw-235" edge="1">
          <mxGeometry width="50" height="50" relative="1" as="geometry">
            <mxPoint x="159.1614232862769" y="279.1082" as="sourcePoint" />
            <mxPoint x="147.1614232862769" y="279.1082" as="targetPoint" />
          </mxGeometry>
        </mxCell>
        <mxCell id="oaZHDNKOcv9WTvhMU7lw-189" value="&lt;span style=&quot;font-weight: normal; font-size: 8px;&quot;&gt;&lt;font style=&quot;font-size: 8px;&quot;&gt;3 mm&lt;/font&gt;&lt;/span&gt;" style="text;align=center;html=1;verticalAlign=middle;rounded=0;shadow=0;glass=0;labelBorderColor=none;labelBackgroundColor=none;whiteSpace=wrap;fontStyle=1;container=0;fontSize=8;" parent="oaZHDNKOcv9WTvhMU7lw-235" vertex="1">
          <mxGeometry x="140.1614232862769" y="261.1082" width="23" height="10.26" as="geometry" />
        </mxCell>
        <mxCell id="oaZHDNKOcv9WTvhMU7lw-190" value="" style="endArrow=classic;startArrow=classic;html=1;rounded=0;movable=1;resizable=1;rotatable=1;deletable=1;editable=1;locked=0;connectable=1;sourcePerimeterSpacing=0;strokeWidth=1;endSize=2;startSize=2;" parent="oaZHDNKOcv9WTvhMU7lw-235" edge="1">
          <mxGeometry width="50" height="50" relative="1" as="geometry">
            <mxPoint x="189.1614232862769" y="418.6082" as="sourcePoint" />
            <mxPoint x="170.1614232862769" y="418.6082" as="targetPoint" />
          </mxGeometry>
        </mxCell>
        <mxCell id="oaZHDNKOcv9WTvhMU7lw-191" value="&lt;span style=&quot;font-weight: normal; font-size: 10px;&quot;&gt;&lt;font style=&quot;font-size: 10px;&quot;&gt;6 mm&lt;/font&gt;&lt;/span&gt;" style="text;align=center;html=1;verticalAlign=middle;rounded=0;shadow=0;glass=0;labelBorderColor=none;labelBackgroundColor=none;whiteSpace=wrap;fontStyle=1;container=0;fontSize=10;" parent="oaZHDNKOcv9WTvhMU7lw-235" vertex="1">
          <mxGeometry x="170.1614232862769" y="403.1082" width="29" height="10.26" as="geometry" />
        </mxCell>
        <mxCell id="oaZHDNKOcv9WTvhMU7lw-192" value="" style="ellipse;whiteSpace=wrap;html=1;aspect=fixed;fillColor=none;dashed=1;strokeColor=#303030;" parent="oaZHDNKOcv9WTvhMU7lw-235" vertex="1">
          <mxGeometry x="49.161423286276886" y="517.1082" width="65" height="65" as="geometry" />
        </mxCell>
        <mxCell id="oaZHDNKOcv9WTvhMU7lw-193" value="" style="endArrow=none;startArrow=classic;html=1;rounded=0;movable=1;resizable=1;rotatable=1;deletable=1;editable=1;locked=0;connectable=1;sourcePerimeterSpacing=0;strokeWidth=1;endSize=5;startSize=5;endFill=0;strokeColor=#323232;dashed=1;" parent="oaZHDNKOcv9WTvhMU7lw-235" edge="1">
          <mxGeometry width="50" height="50" relative="1" as="geometry">
            <mxPoint x="138.1614232862769" y="552.1082" as="sourcePoint" />
            <mxPoint x="119.16142328627689" y="552.1082" as="targetPoint" />
          </mxGeometry>
        </mxCell>
        <mxCell id="oaZHDNKOcv9WTvhMU7lw-194" value="" style="ellipse;whiteSpace=wrap;html=1;aspect=fixed;fillColor=none;dashed=1;strokeColor=#303030;" parent="oaZHDNKOcv9WTvhMU7lw-235" vertex="1">
          <mxGeometry x="142.16122328627694" y="516.1070000000001" width="73" height="73" as="geometry" />
        </mxCell>
        <mxCell id="oaZHDNKOcv9WTvhMU7lw-195" value="" style="rounded=0;whiteSpace=wrap;html=1;pointerEvents=0;fontFamily=Helvetica;fontSize=12;fontColor=default;fillColor=none;gradientColor=none;" parent="oaZHDNKOcv9WTvhMU7lw-235" vertex="1">
          <mxGeometry x="163.06142328627686" y="526.1082" width="31.2" height="53.5" as="geometry" />
        </mxCell>
        <mxCell id="oaZHDNKOcv9WTvhMU7lw-197" value="" style="verticalLabelPosition=bottom;verticalAlign=top;html=1;shape=mxgraph.basic.arc;startAngle=0.6869365496577422;endAngle=0.3138131148078574;pointerEvents=0;fontFamily=Helvetica;fontSize=12;fontColor=default;fillColor=none;gradientColor=none;" parent="oaZHDNKOcv9WTvhMU7lw-235" vertex="1">
          <mxGeometry x="167.1614232862769" y="530.2082" width="22.8346" height="22.8346" as="geometry" />
        </mxCell>
        <mxCell id="oaZHDNKOcv9WTvhMU7lw-198" value="" style="endArrow=none;html=1;rounded=0;fontFamily=Helvetica;fontSize=12;fontColor=default;" parent="oaZHDNKOcv9WTvhMU7lw-235" edge="1">
          <mxGeometry width="50" height="50" relative="1" as="geometry">
            <mxPoint x="167.9614232862769" y="579.1082" as="sourcePoint" />
            <mxPoint x="167.9614232862769" y="545.6082" as="targetPoint" />
          </mxGeometry>
        </mxCell>
        <mxCell id="oaZHDNKOcv9WTvhMU7lw-199" value="" style="endArrow=none;html=1;rounded=0;fontFamily=Helvetica;fontSize=12;fontColor=default;" parent="oaZHDNKOcv9WTvhMU7lw-235" edge="1">
          <mxGeometry width="50" height="50" relative="1" as="geometry">
            <mxPoint x="189.1614232862769" y="580.1082" as="sourcePoint" />
            <mxPoint x="189.1614232862769" y="545.6082" as="targetPoint" />
          </mxGeometry>
        </mxCell>
        <mxCell id="oaZHDNKOcv9WTvhMU7lw-200" value="" style="endArrow=none;html=1;rounded=0;fontFamily=Helvetica;fontSize=12;fontColor=default;" parent="oaZHDNKOcv9WTvhMU7lw-235" edge="1">
          <mxGeometry width="50" height="50" relative="1" as="geometry">
            <mxPoint x="167.4614232862769" y="574.6082" as="sourcePoint" />
            <mxPoint x="189.6614232862769" y="574.6082" as="targetPoint" />
          </mxGeometry>
        </mxCell>
        <mxCell id="oaZHDNKOcv9WTvhMU7lw-201" value="" style="endArrow=classic;startArrow=classic;html=1;rounded=0;movable=1;resizable=1;rotatable=1;deletable=1;editable=1;locked=0;connectable=1;sourcePerimeterSpacing=0;strokeWidth=1;endSize=2;startSize=2;" parent="oaZHDNKOcv9WTvhMU7lw-235" edge="1">
          <mxGeometry width="50" height="50" relative="1" as="geometry">
            <mxPoint x="188.86142328627687" y="541.1082" as="sourcePoint" />
            <mxPoint x="168.1614232862769" y="541.1082" as="targetPoint" />
          </mxGeometry>
        </mxCell>
        <mxCell id="oaZHDNKOcv9WTvhMU7lw-202" value="&lt;span style=&quot;font-weight: normal; font-size: 5.5px;&quot;&gt;&lt;font style=&quot;font-size: 5.5px;&quot;&gt;8.2 mm&lt;/font&gt;&lt;/span&gt;" style="text;align=center;html=1;verticalAlign=middle;rounded=0;shadow=0;glass=0;labelBorderColor=none;labelBackgroundColor=none;whiteSpace=wrap;fontStyle=1;container=0;fontSize=5.5;" parent="oaZHDNKOcv9WTvhMU7lw-235" vertex="1">
          <mxGeometry x="160.1614232862769" y="543.1082" width="36" height="10.26" as="geometry" />
        </mxCell>
        <mxCell id="oaZHDNKOcv9WTvhMU7lw-203" value="" style="ellipse;whiteSpace=wrap;html=1;aspect=fixed;fontColor=#000000;fillColor=#000000;container=0;" parent="oaZHDNKOcv9WTvhMU7lw-235" vertex="1">
          <mxGeometry x="177.1614232862769" y="539.1082" width="3.27" height="3.27" as="geometry" />
        </mxCell>
        <mxCell id="oaZHDNKOcv9WTvhMU7lw-204" value="" style="endArrow=none;html=1;rounded=0;dashed=1;dashPattern=1 2;" parent="oaZHDNKOcv9WTvhMU7lw-235" edge="1">
          <mxGeometry width="50" height="50" relative="1" as="geometry">
            <mxPoint x="198.1614232862769" y="541.1082" as="sourcePoint" />
            <mxPoint x="188.1614232862769" y="541.1082" as="targetPoint" />
          </mxGeometry>
        </mxCell>
        <mxCell id="oaZHDNKOcv9WTvhMU7lw-205" value="" style="endArrow=classic;startArrow=classic;html=1;rounded=0;movable=1;resizable=1;rotatable=1;deletable=1;editable=1;locked=0;connectable=1;sourcePerimeterSpacing=0;strokeWidth=1;endSize=2;startSize=2;" parent="oaZHDNKOcv9WTvhMU7lw-235" edge="1">
          <mxGeometry width="50" height="50" relative="1" as="geometry">
            <mxPoint x="199.1614232862769" y="578.1082" as="sourcePoint" />
            <mxPoint x="199.1614232862769" y="541.1082" as="targetPoint" />
          </mxGeometry>
        </mxCell>
        <mxCell id="oaZHDNKOcv9WTvhMU7lw-206" value="" style="endArrow=none;html=1;rounded=0;dashed=1;dashPattern=1 2;" parent="oaZHDNKOcv9WTvhMU7lw-235" edge="1">
          <mxGeometry width="50" height="50" relative="1" as="geometry">
            <mxPoint x="198.1614232862769" y="579.6082" as="sourcePoint" />
            <mxPoint x="188.1614232862769" y="579.6082" as="targetPoint" />
          </mxGeometry>
        </mxCell>
        <mxCell id="oaZHDNKOcv9WTvhMU7lw-207" value="&lt;span style=&quot;font-weight: normal; font-size: 7px;&quot;&gt;&lt;font style=&quot;font-size: 7px;&quot;&gt;8.2 mm&lt;/font&gt;&lt;/span&gt;" style="text;align=center;html=1;verticalAlign=middle;rounded=0;shadow=0;glass=0;labelBorderColor=none;labelBackgroundColor=none;whiteSpace=wrap;fontStyle=1;container=0;fontSize=7;rotation=-90;" parent="oaZHDNKOcv9WTvhMU7lw-235" vertex="1">
          <mxGeometry x="187.1614232862769" y="555.1082" width="36" height="10.26" as="geometry" />
        </mxCell>
        <mxCell id="oaZHDNKOcv9WTvhMU7lw-208" value="" style="endArrow=classic;startArrow=classic;html=1;rounded=0;movable=1;resizable=1;rotatable=1;deletable=1;editable=1;locked=0;connectable=1;sourcePerimeterSpacing=0;strokeWidth=1;endSize=0;startSize=0;" parent="oaZHDNKOcv9WTvhMU7lw-235" edge="1">
          <mxGeometry width="50" height="50" relative="1" as="geometry">
            <mxPoint x="160.1614232862769" y="580.1082" as="sourcePoint" />
            <mxPoint x="160.1614232862769" y="573.1082" as="targetPoint" />
          </mxGeometry>
        </mxCell>
        <mxCell id="oaZHDNKOcv9WTvhMU7lw-209" value="&lt;span style=&quot;font-weight: normal; font-size: 3px;&quot;&gt;&lt;font style=&quot;font-size: 3px;&quot;&gt;2 mm&lt;/font&gt;&lt;/span&gt;" style="text;align=center;html=1;verticalAlign=middle;rounded=0;shadow=0;glass=0;labelBorderColor=none;labelBackgroundColor=none;whiteSpace=wrap;fontStyle=1;container=0;fontSize=3;rotation=-90;" parent="oaZHDNKOcv9WTvhMU7lw-235" vertex="1">
          <mxGeometry x="150.1614232862769" y="575.1082" width="12.63" height="2" as="geometry" />
        </mxCell>
        <mxCell id="oaZHDNKOcv9WTvhMU7lw-210" value="" style="endArrow=none;html=1;rounded=0;dashed=1;dashPattern=1 2;" parent="oaZHDNKOcv9WTvhMU7lw-235" edge="1">
          <mxGeometry width="50" height="50" relative="1" as="geometry">
            <mxPoint x="178.6614232862769" y="527.1082" as="sourcePoint" />
            <mxPoint x="178.6614232862769" y="537.1082" as="targetPoint" />
          </mxGeometry>
        </mxCell>
        <mxCell id="oaZHDNKOcv9WTvhMU7lw-211" value="" style="endArrow=classic;startArrow=classic;html=1;rounded=0;movable=1;resizable=1;rotatable=1;deletable=1;editable=1;locked=0;connectable=1;sourcePerimeterSpacing=0;strokeWidth=1;endSize=2;startSize=2;" parent="oaZHDNKOcv9WTvhMU7lw-235" edge="1">
          <mxGeometry width="50" height="50" relative="1" as="geometry">
            <mxPoint x="188.1614232862769" y="570.1082" as="sourcePoint" />
            <mxPoint x="169.1614232862769" y="570.1082" as="targetPoint" />
          </mxGeometry>
        </mxCell>
        <mxCell id="oaZHDNKOcv9WTvhMU7lw-212" value="&lt;span style=&quot;font-weight: normal; font-size: 5.5px;&quot;&gt;&lt;font style=&quot;font-size: 5.5px;&quot;&gt;7.5 mm&lt;/font&gt;&lt;/span&gt;" style="text;align=center;html=1;verticalAlign=middle;rounded=0;shadow=0;glass=0;labelBorderColor=none;labelBackgroundColor=none;whiteSpace=wrap;fontStyle=1;container=0;fontSize=5.5;" parent="oaZHDNKOcv9WTvhMU7lw-235" vertex="1">
          <mxGeometry x="160.1614232862769" y="559.1082" width="36" height="10.26" as="geometry" />
        </mxCell>
        <mxCell id="oaZHDNKOcv9WTvhMU7lw-213" value="&lt;span style=&quot;font-weight: 400; font-size: 6px;&quot;&gt;Bottom&lt;/span&gt;" style="text;align=center;html=1;verticalAlign=middle;rounded=0;shadow=0;glass=0;labelBorderColor=none;labelBackgroundColor=none;whiteSpace=wrap;fontStyle=1;container=0;fontSize=6;" parent="oaZHDNKOcv9WTvhMU7lw-235" vertex="1">
          <mxGeometry x="167.1614232862769" y="579.1082" width="25" height="9.26" as="geometry" />
        </mxCell>
        <mxCell id="oaZHDNKOcv9WTvhMU7lw-217" value="" style="endArrow=classic;startArrow=classic;html=1;rounded=0;movable=1;resizable=1;rotatable=1;deletable=1;editable=1;locked=0;connectable=1;sourcePerimeterSpacing=0;strokeWidth=1;endSize=2;startSize=2;" parent="oaZHDNKOcv9WTvhMU7lw-235" edge="1">
          <mxGeometry width="50" height="50" relative="1" as="geometry">
            <mxPoint x="95.16142328627689" y="95.10820000000001" as="sourcePoint" />
            <mxPoint x="89.16142328627689" y="84.10820000000001" as="targetPoint" />
          </mxGeometry>
        </mxCell>
        <mxCell id="oaZHDNKOcv9WTvhMU7lw-218" value="&lt;span style=&quot;font-weight: normal; font-size: 6px;&quot;&gt;&lt;font style=&quot;font-size: 6px;&quot;&gt;16 mm&lt;/font&gt;&lt;/span&gt;" style="text;align=center;html=1;verticalAlign=middle;rounded=0;shadow=0;glass=0;labelBorderColor=none;labelBackgroundColor=none;whiteSpace=wrap;fontStyle=1;container=0;fontSize=6;rotation=62.6;" parent="oaZHDNKOcv9WTvhMU7lw-235" vertex="1">
          <mxGeometry x="81.73142328627688" y="81.8682" width="31" height="9.26" as="geometry" />
        </mxCell>
        <mxCell id="oaZHDNKOcv9WTvhMU7lw-221" value="" style="endArrow=none;startArrow=classic;html=1;rounded=0;movable=1;resizable=1;rotatable=1;deletable=1;editable=1;locked=0;connectable=1;sourcePerimeterSpacing=0;strokeWidth=1;endSize=5;startSize=5;endFill=0;strokeColor=#323232;dashed=1;" parent="oaZHDNKOcv9WTvhMU7lw-235" edge="1">
          <mxGeometry width="50" height="50" relative="1" as="geometry">
            <mxPoint x="114.16142328627689" y="143.1082" as="sourcePoint" />
            <mxPoint x="80.16142328627689" y="95.10820000000001" as="targetPoint" />
          </mxGeometry>
        </mxCell>
        <mxCell id="oaZHDNKOcv9WTvhMU7lw-223" value="" style="endArrow=none;startArrow=classic;html=1;rounded=0;movable=1;resizable=1;rotatable=1;deletable=1;editable=1;locked=0;connectable=1;sourcePerimeterSpacing=0;strokeWidth=1;endSize=5;startSize=5;endFill=0;strokeColor=#323232;dashed=1;" parent="oaZHDNKOcv9WTvhMU7lw-235" edge="1">
          <mxGeometry width="50" height="50" relative="1" as="geometry">
            <mxPoint x="116.16142328627689" y="197.1082" as="sourcePoint" />
            <mxPoint x="82.16142328627689" y="156.1082" as="targetPoint" />
          </mxGeometry>
        </mxCell>
        <mxCell id="oaZHDNKOcv9WTvhMU7lw-224" value="&lt;span style=&quot;font-weight: 400;&quot;&gt;Arbitrary position and style of panels support holder (to be checked the 3D model for more details)&lt;/span&gt;" style="text;align=center;html=1;verticalAlign=middle;rounded=0;shadow=0;glass=0;labelBorderColor=none;labelBackgroundColor=none;whiteSpace=wrap;fontStyle=1;container=0;fontSize=6;rotation=0;" parent="oaZHDNKOcv9WTvhMU7lw-235" vertex="1">
          <mxGeometry x="83.16142328627689" y="216.1082" width="70.23" height="5" as="geometry" />
        </mxCell>
        <mxCell id="oaZHDNKOcv9WTvhMU7lw-225" value="" style="ellipse;whiteSpace=wrap;html=1;aspect=fixed;fillColor=none;dashed=1;strokeColor=#303030;" parent="oaZHDNKOcv9WTvhMU7lw-235" vertex="1">
          <mxGeometry x="114.16142328627689" y="90.10820000000001" width="28" height="28" as="geometry" />
        </mxCell>
        <mxCell id="oaZHDNKOcv9WTvhMU7lw-226" value="" style="endArrow=none;startArrow=classic;html=1;rounded=0;movable=1;resizable=1;rotatable=1;deletable=1;editable=1;locked=0;connectable=1;sourcePerimeterSpacing=0;strokeWidth=1;endSize=5;startSize=5;endFill=0;strokeColor=#323232;dashed=1;" parent="oaZHDNKOcv9WTvhMU7lw-235" edge="1">
          <mxGeometry width="50" height="50" relative="1" as="geometry">
            <mxPoint x="173.1614232862769" y="166.1082" as="sourcePoint" />
            <mxPoint x="139.1614232862769" y="118.10820000000001" as="targetPoint" />
          </mxGeometry>
        </mxCell>
        <mxCell id="oaZHDNKOcv9WTvhMU7lw-227" value="&lt;span style=&quot;font-weight: 400;&quot;&gt;Humidity Sensor Cables Hole position is based on the flower pot type (to be checked the 3D model for more details)&lt;/span&gt;" style="text;align=center;html=1;verticalAlign=middle;rounded=0;shadow=0;glass=0;labelBorderColor=none;labelBackgroundColor=none;whiteSpace=wrap;fontStyle=1;container=0;fontSize=6;rotation=0;" parent="oaZHDNKOcv9WTvhMU7lw-235" vertex="1">
          <mxGeometry x="147.1614232862769" y="184.1082" width="70.23" height="5" as="geometry" />
        </mxCell>
        <mxCell id="oaZHDNKOcv9WTvhMU7lw-228" value="" style="endArrow=classic;startArrow=classic;html=1;rounded=0;movable=1;resizable=1;rotatable=1;deletable=1;editable=1;locked=0;connectable=1;sourcePerimeterSpacing=0;strokeWidth=1;endSize=2;startSize=2;" parent="oaZHDNKOcv9WTvhMU7lw-235" edge="1">
          <mxGeometry width="50" height="50" relative="1" as="geometry">
            <mxPoint x="136.1614232862769" y="109.10820000000001" as="sourcePoint" />
            <mxPoint x="118.16142328627689" y="105.10820000000001" as="targetPoint" />
          </mxGeometry>
        </mxCell>
        <mxCell id="oaZHDNKOcv9WTvhMU7lw-229" value="&lt;span style=&quot;font-weight: normal; font-size: 6px;&quot;&gt;&lt;font style=&quot;font-size: 6px;&quot;&gt;7 mm&lt;/font&gt;&lt;/span&gt;" style="text;align=center;html=1;verticalAlign=middle;rounded=0;shadow=0;glass=0;labelBorderColor=none;labelBackgroundColor=none;whiteSpace=wrap;fontStyle=1;container=0;fontSize=6;rotation=11.9;" parent="oaZHDNKOcv9WTvhMU7lw-235" vertex="1">
          <mxGeometry x="111.16142328627689" y="107.10820000000001" width="29" height="10.26" as="geometry" />
        </mxCell>
        <mxCell id="oaZHDNKOcv9WTvhMU7lw-12" value="" style="curved=1;endArrow=none;html=1;rounded=0;strokeWidth=1.5;endFill=0;" parent="oaZHDNKOcv9WTvhMU7lw-235" edge="1">
          <mxGeometry width="50" height="50" relative="1" as="geometry">
            <mxPoint x="42.34698426188663" y="577.2682" as="sourcePoint" />
            <mxPoint x="21.521033042374455" y="262.04408550983896" as="targetPoint" />
            <Array as="points">
              <mxPoint x="44.240252554569565" y="539.4034415026833" />
              <mxPoint x="43.2936184082281" y="444.7415452593917" />
              <mxPoint x="39.50708182286226" y="350.07964901610023" />
            </Array>
          </mxGeometry>
        </mxCell>
        <mxCell id="oaZHDNKOcv9WTvhMU7lw-14" value="" style="curved=1;endArrow=none;html=1;rounded=0;strokeWidth=1.5;endFill=0;" parent="oaZHDNKOcv9WTvhMU7lw-235" edge="1">
          <mxGeometry width="50" height="50" relative="1" as="geometry">
            <mxPoint x="21.521033042374455" y="262.04408550983896" as="sourcePoint" />
            <mxPoint x="33.82727694481346" y="107.74519463327374" as="targetPoint" />
            <Array as="points">
              <mxPoint x="10.161423286276886" y="208.08680465116277" />
              <mxPoint x="12.054691578959819" y="154.12952379248657" />
              <mxPoint x="27.200837920423226" y="117.21138425760284" />
            </Array>
          </mxGeometry>
        </mxCell>
        <mxCell id="oaZHDNKOcv9WTvhMU7lw-15" value="" style="endArrow=none;html=1;rounded=0;strokeWidth=1.5;" parent="oaZHDNKOcv9WTvhMU7lw-235" edge="1">
          <mxGeometry width="50" height="50" relative="1" as="geometry">
            <mxPoint x="33.82727694481346" y="108.69181359570666" as="sourcePoint" />
            <mxPoint x="32.880642798472024" y="80.29324472271912" as="targetPoint" />
          </mxGeometry>
        </mxCell>
        <mxCell id="oaZHDNKOcv9WTvhMU7lw-16" value="" style="endArrow=none;html=1;rounded=0;strokeWidth=1.5;" parent="oaZHDNKOcv9WTvhMU7lw-235" edge="1">
          <mxGeometry width="50" height="50" relative="1" as="geometry">
            <mxPoint x="61.279667188715905" y="63.254103398926645" as="sourcePoint" />
            <mxPoint x="31.934008652130558" y="80.29324472271912" as="targetPoint" />
          </mxGeometry>
        </mxCell>
        <mxCell id="oaZHDNKOcv9WTvhMU7lw-17" value="" style="endArrow=none;html=1;rounded=0;strokeWidth=1.5;" parent="oaZHDNKOcv9WTvhMU7lw-235" edge="1">
          <mxGeometry width="50" height="50" relative="1" as="geometry">
            <mxPoint x="61.279667188715905" y="62.30748443649372" as="sourcePoint" />
            <mxPoint x="68.85274035944764" y="76.22278318425765" as="targetPoint" />
          </mxGeometry>
        </mxCell>
        <mxCell id="oaZHDNKOcv9WTvhMU7lw-18" value="" style="curved=1;endArrow=none;html=1;rounded=0;strokeWidth=1.5;endFill=0;" parent="oaZHDNKOcv9WTvhMU7lw-235" edge="1">
          <mxGeometry width="50" height="50" relative="1" as="geometry">
            <mxPoint x="68.85274035944764" y="75.56014991055451" as="sourcePoint" />
            <mxPoint x="203.27478913993542" y="124.78433595706622" as="targetPoint" />
            <Array as="points">
              <mxPoint x="124.70415499359396" y="48.10820000000001" />
              <mxPoint x="189.07527694481348" y="92.5992912343471" />
            </Array>
          </mxGeometry>
        </mxCell>
        <mxCell id="oaZHDNKOcv9WTvhMU7lw-19" value="" style="curved=1;endArrow=none;html=1;rounded=0;strokeWidth=1.5;endFill=0;" parent="oaZHDNKOcv9WTvhMU7lw-235" edge="1">
          <mxGeometry width="50" height="50" relative="1" as="geometry">
            <mxPoint x="86.55479889603305" y="511.00487262969585" as="sourcePoint" />
            <mxPoint x="64.1195696277403" y="262.04408550983896" as="targetPoint" />
            <Array as="points">
              <mxPoint x="86.83878913993544" y="539.4034415026833" />
              <mxPoint x="85.89215499359398" y="444.7415452593917" />
              <mxPoint x="82.10561840822811" y="350.07964901610023" />
            </Array>
          </mxGeometry>
        </mxCell>
        <mxCell id="oaZHDNKOcv9WTvhMU7lw-20" value="" style="curved=1;endArrow=none;html=1;rounded=0;strokeWidth=1.5;endFill=0;" parent="oaZHDNKOcv9WTvhMU7lw-235" edge="1">
          <mxGeometry width="50" height="50" relative="1" as="geometry">
            <mxPoint x="64.1195696277403" y="262.9907044722719" as="sourcePoint" />
            <mxPoint x="62.22630133505737" y="142.77009624329162" as="targetPoint" />
            <Array as="points">
              <mxPoint x="54.65322816432567" y="206.19356672629692" />
              <mxPoint x="52.759959871642735" y="165.48895134168163" />
            </Array>
          </mxGeometry>
        </mxCell>
        <mxCell id="oaZHDNKOcv9WTvhMU7lw-21" value="" style="endArrow=none;html=1;rounded=0;strokeWidth=1.5;" parent="oaZHDNKOcv9WTvhMU7lw-235" edge="1">
          <mxGeometry width="50" height="50" relative="1" as="geometry">
            <mxPoint x="67.90610621310617" y="144.66333416815746" as="sourcePoint" />
            <mxPoint x="61.279667188715905" y="142.77009624329162" as="targetPoint" />
          </mxGeometry>
        </mxCell>
        <mxCell id="oaZHDNKOcv9WTvhMU7lw-22" value="" style="endArrow=none;html=1;rounded=0;strokeWidth=1.5;" parent="oaZHDNKOcv9WTvhMU7lw-235" edge="1">
          <mxGeometry width="50" height="50" relative="1" as="geometry">
            <mxPoint x="98.19839889603298" y="126.67757388193206" as="sourcePoint" />
            <mxPoint x="66.9594720667647" y="144.66333416815746" as="targetPoint" />
          </mxGeometry>
        </mxCell>
        <mxCell id="oaZHDNKOcv9WTvhMU7lw-23" value="" style="endArrow=none;html=1;rounded=0;strokeWidth=1.5;" parent="oaZHDNKOcv9WTvhMU7lw-235" edge="1">
          <mxGeometry width="50" height="50" relative="1" as="geometry">
            <mxPoint x="89.67869157895981" y="111.53167048300543" as="sourcePoint" />
            <mxPoint x="98.19839889603298" y="127.62419284436498" as="targetPoint" />
          </mxGeometry>
        </mxCell>
        <mxCell id="oaZHDNKOcv9WTvhMU7lw-25" value="" style="curved=1;endArrow=none;html=1;rounded=0;strokeWidth=1.5;endFill=0;" parent="oaZHDNKOcv9WTvhMU7lw-235" edge="1">
          <mxGeometry width="50" height="50" relative="1" as="geometry">
            <mxPoint x="89.67869157895981" y="112.47828944543824" as="sourcePoint" />
            <mxPoint x="117.13108182286226" y="103.95871878354205" as="targetPoint" />
            <Array as="points">
              <mxPoint x="95.35849645700858" y="108.69181359570666" />
              <mxPoint x="106.71810621310615" y="103.95871878354205" />
            </Array>
          </mxGeometry>
        </mxCell>
        <mxCell id="oaZHDNKOcv9WTvhMU7lw-26" value="" style="curved=1;endArrow=none;html=1;rounded=0;strokeWidth=1.5;endFill=0;" parent="oaZHDNKOcv9WTvhMU7lw-235" edge="1">
          <mxGeometry width="50" height="50" relative="1" as="geometry">
            <mxPoint x="138.90366718871593" y="108.69181359570666" as="sourcePoint" />
            <mxPoint x="166.3560574326184" y="144.66333416815746" as="targetPoint" />
            <Array as="points">
              <mxPoint x="153.10317938383787" y="120.99786010733453" />
              <mxPoint x="162.56952084725253" y="136.14376350626117" />
            </Array>
          </mxGeometry>
        </mxCell>
        <mxCell id="oaZHDNKOcv9WTvhMU7lw-27" value="" style="endArrow=none;html=1;rounded=0;strokeWidth=1.5;" parent="oaZHDNKOcv9WTvhMU7lw-235" edge="1">
          <mxGeometry width="50" height="50" relative="1" as="geometry">
            <mxPoint x="165.40942328627693" y="144.66333416815746" as="sourcePoint" />
            <mxPoint x="204.2214232862769" y="124.78433595706622" as="targetPoint" />
          </mxGeometry>
        </mxCell>
        <mxCell id="oaZHDNKOcv9WTvhMU7lw-28" value="" style="curved=1;endArrow=none;html=1;rounded=0;strokeWidth=1.5;endFill=0;" parent="oaZHDNKOcv9WTvhMU7lw-235" edge="1">
          <mxGeometry width="50" height="50" relative="1" as="geometry">
            <mxPoint x="78.31908182286224" y="577.2682" as="sourcePoint" />
            <mxPoint x="86.83878913993544" y="521.4176812164579" as="targetPoint" />
            <Array as="points">
              <mxPoint x="80.21235011554518" y="557.3892017889087" />
              <mxPoint x="75.47917938383785" y="527.0973949910555" />
            </Array>
          </mxGeometry>
        </mxCell>
        <mxCell id="oaZHDNKOcv9WTvhMU7lw-29" value="" style="endArrow=none;html=1;rounded=0;strokeWidth=1.5;" parent="oaZHDNKOcv9WTvhMU7lw-235" edge="1">
          <mxGeometry width="50" height="50" relative="1" as="geometry">
            <mxPoint x="41.68434035944759" y="577.2682" as="sourcePoint" />
            <mxPoint x="79.07638913993537" y="577.2682" as="targetPoint" />
          </mxGeometry>
        </mxCell>
        <mxCell id="oaZHDNKOcv9WTvhMU7lw-30" value="" style="curved=1;endArrow=none;html=1;rounded=0;strokeWidth=1.5;endFill=0;" parent="oaZHDNKOcv9WTvhMU7lw-235" edge="1">
          <mxGeometry width="50" height="50" relative="1" as="geometry">
            <mxPoint x="116.18444767652079" y="103.95871878354205" as="sourcePoint" />
            <mxPoint x="139.09299401798427" y="108.97579928443645" as="targetPoint" />
            <Array as="points">
              <mxPoint x="118.07771596920372" y="98.27900500894452" />
              <mxPoint x="135.11713060335006" y="97.3323860465116" />
            </Array>
          </mxGeometry>
        </mxCell>
        <mxCell id="oaZHDNKOcv9WTvhMU7lw-31" value="" style="ellipse;whiteSpace=wrap;html=1;aspect=fixed;strokeWidth=1.5;fillColor=none;dashed=1;dashPattern=1 1;" parent="oaZHDNKOcv9WTvhMU7lw-235" vertex="1">
          <mxGeometry x="73.58591109115494" y="87.8661964221825" width="14.161419677996422" height="14.161419677996422" as="geometry" />
        </mxCell>
        <mxCell id="oaZHDNKOcv9WTvhMU7lw-33" value="" style="ellipse;whiteSpace=wrap;html=1;strokeWidth=1;fillColor=none;rotation=-19.7;" parent="oaZHDNKOcv9WTvhMU7lw-235" vertex="1">
          <mxGeometry x="29.09410621310616" y="283.81632164579605" width="5.679804878048781" height="9.466189624329159" as="geometry" />
        </mxCell>
        <mxCell id="oaZHDNKOcv9WTvhMU7lw-34" value="" style="ellipse;whiteSpace=wrap;html=1;strokeWidth=1;fillColor=none;rotation=-1.3999999999999986;" parent="oaZHDNKOcv9WTvhMU7lw-235" vertex="1">
          <mxGeometry x="44.15688670091103" y="410.6632626118068" width="5.679804878048781" height="9.466189624329159" as="geometry" />
        </mxCell>
        <mxCell id="oaZHDNKOcv9WTvhMU7lw-35" value="" style="endArrow=none;html=1;rounded=0;strokeWidth=1.5;" parent="oaZHDNKOcv9WTvhMU7lw-235" edge="1">
          <mxGeometry width="50" height="50" relative="1" as="geometry">
            <mxPoint x="67.90610621310617" y="341.56007835420394" as="sourcePoint" />
            <mxPoint x="84.94552084725251" y="341.56007835420394" as="targetPoint" />
          </mxGeometry>
        </mxCell>
        <mxCell id="oaZHDNKOcv9WTvhMU7lw-36" value="" style="endArrow=none;html=1;rounded=0;strokeWidth=1.5;" parent="oaZHDNKOcv9WTvhMU7lw-235" edge="1">
          <mxGeometry width="50" height="50" relative="1" as="geometry">
            <mxPoint x="68.85274035944764" y="349.1330300536673" as="sourcePoint" />
            <mxPoint x="84.94552084725251" y="349.1330300536673" as="targetPoint" />
          </mxGeometry>
        </mxCell>
        <mxCell id="oaZHDNKOcv9WTvhMU7lw-37" value="" style="endArrow=none;html=1;rounded=0;strokeWidth=1.5;" parent="oaZHDNKOcv9WTvhMU7lw-235" edge="1">
          <mxGeometry width="50" height="50" relative="1" as="geometry">
            <mxPoint x="84.94552084725251" y="349.84299427549195" as="sourcePoint" />
            <mxPoint x="84.94552084725251" y="340.8501141323792" as="targetPoint" />
          </mxGeometry>
        </mxCell>
        <mxCell id="oaZHDNKOcv9WTvhMU7lw-38" value="" style="endArrow=none;html=1;rounded=0;strokeWidth=1.5;" parent="oaZHDNKOcv9WTvhMU7lw-235" edge="1">
          <mxGeometry width="50" height="50" relative="1" as="geometry">
            <mxPoint x="71.69264279847201" y="376.34832522361364" as="sourcePoint" />
            <mxPoint x="86.83878913993544" y="376.34832522361364" as="targetPoint" />
          </mxGeometry>
        </mxCell>
        <mxCell id="oaZHDNKOcv9WTvhMU7lw-39" value="" style="endArrow=none;html=1;rounded=0;strokeWidth=1.5;" parent="oaZHDNKOcv9WTvhMU7lw-235" edge="1">
          <mxGeometry width="50" height="50" relative="1" as="geometry">
            <mxPoint x="72.63927694481347" y="383.9212769230769" as="sourcePoint" />
            <mxPoint x="86.83878913993544" y="383.9212769230769" as="targetPoint" />
          </mxGeometry>
        </mxCell>
        <mxCell id="oaZHDNKOcv9WTvhMU7lw-40" value="" style="endArrow=none;html=1;rounded=0;strokeWidth=1.5;" parent="oaZHDNKOcv9WTvhMU7lw-235" edge="1">
          <mxGeometry width="50" height="50" relative="1" as="geometry">
            <mxPoint x="86.83878913993544" y="384.63124114490154" as="sourcePoint" />
            <mxPoint x="86.83878913993544" y="375.6383610017889" as="targetPoint" />
          </mxGeometry>
        </mxCell>
        <mxCell id="oaZHDNKOcv9WTvhMU7lw-41" value="" style="curved=1;endArrow=none;html=1;rounded=0;strokeWidth=1;endFill=0;" parent="oaZHDNKOcv9WTvhMU7lw-235" edge="1">
          <mxGeometry width="50" height="50" relative="1" as="geometry">
            <mxPoint x="74.53254523749641" y="578.2148189624329" as="sourcePoint" />
            <mxPoint x="53.7065940179842" y="262.9907044722719" as="targetPoint" />
            <Array as="points">
              <mxPoint x="76.42581353017931" y="540.3500604651163" />
              <mxPoint x="75.47917938383785" y="445.68816422182465" />
              <mxPoint x="71.69264279847201" y="351.02626797853316" />
            </Array>
          </mxGeometry>
        </mxCell>
        <mxCell id="oaZHDNKOcv9WTvhMU7lw-42" value="" style="curved=1;endArrow=none;html=1;rounded=0;strokeWidth=1;endFill=0;" parent="oaZHDNKOcv9WTvhMU7lw-235" edge="1">
          <mxGeometry width="50" height="50" relative="1" as="geometry">
            <mxPoint x="52.759959871642735" y="577.2682" as="sourcePoint" />
            <mxPoint x="31.934008652130558" y="262.04408550983896" as="targetPoint" />
            <Array as="points">
              <mxPoint x="54.65322816432567" y="539.4034415026833" />
              <mxPoint x="53.7065940179842" y="444.7415452593917" />
              <mxPoint x="49.920057432618364" y="350.07964901610023" />
            </Array>
          </mxGeometry>
        </mxCell>
        <mxCell id="oaZHDNKOcv9WTvhMU7lw-43" value="" style="curved=1;endArrow=none;html=1;rounded=0;strokeWidth=1;endFill=0;" parent="oaZHDNKOcv9WTvhMU7lw-235" edge="1">
          <mxGeometry width="50" height="50" relative="1" as="geometry">
            <mxPoint x="53.7065940179842" y="262.9907044722719" as="sourcePoint" />
            <mxPoint x="174.87576474969154" y="139.93023935599285" as="targetPoint" />
            <Array as="points">
              <mxPoint x="41.400350115545166" y="213.7665184257603" />
              <mxPoint x="49.920057432618364" y="120.05124114490161" />
              <mxPoint x="120.91761840822812" y="85.97295849731665" />
              <mxPoint x="162.56952084725253" y="109.63843255813958" />
            </Array>
          </mxGeometry>
        </mxCell>
        <mxCell id="oaZHDNKOcv9WTvhMU7lw-44" value="" style="curved=1;endArrow=none;html=1;rounded=0;strokeWidth=1;endFill=0;" parent="oaZHDNKOcv9WTvhMU7lw-235" edge="1">
          <mxGeometry width="50" height="50" relative="1" as="geometry">
            <mxPoint x="31.934008652130558" y="262.9907044722719" as="sourcePoint" />
            <mxPoint x="194.75508182286228" y="129.51743076923083" as="targetPoint" />
            <Array as="points">
              <mxPoint x="19.627764749691522" y="213.7665184257603" />
              <mxPoint x="27.200837920423226" y="119.10462218246869" />
              <mxPoint x="87.78542328627691" y="73.66691198568878" />
              <mxPoint x="145.53010621310614" y="71.77367406082294" />
              <mxPoint x="180.55556962774028" y="102.06548085867621" />
            </Array>
          </mxGeometry>
        </mxCell>
        <mxCell id="oaZHDNKOcv9WTvhMU7lw-45" value="" style="endArrow=none;html=1;rounded=0;" parent="oaZHDNKOcv9WTvhMU7lw-235" edge="1">
          <mxGeometry width="50" height="50" relative="1" as="geometry">
            <mxPoint x="38.560447676520795" y="85.02633953488373" as="sourcePoint" />
            <mxPoint x="39.50708182286226" y="115.318146332737" as="targetPoint" />
          </mxGeometry>
        </mxCell>
        <mxCell id="oaZHDNKOcv9WTvhMU7lw-46" value="" style="endArrow=none;html=1;rounded=0;" parent="oaZHDNKOcv9WTvhMU7lw-235" edge="1">
          <mxGeometry width="50" height="50" relative="1" as="geometry">
            <mxPoint x="33.82727694481346" y="79.3466257602862" as="sourcePoint" />
            <mxPoint x="39.03376474969153" y="85.4996490161002" as="targetPoint" />
          </mxGeometry>
        </mxCell>
        <mxCell id="oaZHDNKOcv9WTvhMU7lw-47" value="" style="endArrow=none;html=1;rounded=0;" parent="oaZHDNKOcv9WTvhMU7lw-235" edge="1">
          <mxGeometry width="50" height="50" relative="1" as="geometry">
            <mxPoint x="66.01283792042324" y="69.8804361359571" as="sourcePoint" />
            <mxPoint x="38.560447676520795" y="85.02633953488373" as="targetPoint" />
          </mxGeometry>
        </mxCell>
        <mxCell id="oaZHDNKOcv9WTvhMU7lw-48" value="" style="endArrow=none;html=1;rounded=0;" parent="oaZHDNKOcv9WTvhMU7lw-235" edge="1">
          <mxGeometry width="50" height="50" relative="1" as="geometry">
            <mxPoint x="94.41186231066712" y="120.99786010733453" as="sourcePoint" />
            <mxPoint x="66.9594720667647" y="136.14376350626117" as="targetPoint" />
          </mxGeometry>
        </mxCell>
        <mxCell id="oaZHDNKOcv9WTvhMU7lw-49" value="" style="endArrow=none;html=1;rounded=0;" parent="oaZHDNKOcv9WTvhMU7lw-235" edge="1">
          <mxGeometry width="50" height="50" relative="1" as="geometry">
            <mxPoint x="55.599862310667135" y="131.41066869409667" as="sourcePoint" />
            <mxPoint x="67.90610621310617" y="136.14376350626117" as="targetPoint" />
          </mxGeometry>
        </mxCell>
        <mxCell id="oaZHDNKOcv9WTvhMU7lw-50" value="" style="endArrow=none;html=1;rounded=0;" parent="oaZHDNKOcv9WTvhMU7lw-235" edge="1">
          <mxGeometry width="50" height="50" relative="1" as="geometry">
            <mxPoint x="92.51859401798421" y="115.318146332737" as="sourcePoint" />
            <mxPoint x="78.31908182286224" y="122.89109803220038" as="targetPoint" />
          </mxGeometry>
        </mxCell>
        <mxCell id="oaZHDNKOcv9WTvhMU7lw-51" value="" style="endArrow=none;html=1;rounded=0;" parent="oaZHDNKOcv9WTvhMU7lw-235" edge="1">
          <mxGeometry width="50" height="50" relative="1" as="geometry">
            <mxPoint x="87.78542328627691" y="107.74519463327374" as="sourcePoint" />
            <mxPoint x="73.58591109115494" y="115.318146332737" as="targetPoint" />
          </mxGeometry>
        </mxCell>
        <mxCell id="oaZHDNKOcv9WTvhMU7lw-52" value="" style="endArrow=none;html=1;rounded=0;" parent="oaZHDNKOcv9WTvhMU7lw-235" edge="1">
          <mxGeometry width="50" height="50" relative="1" as="geometry">
            <mxPoint x="73.58591109115494" y="114.84483685152054" as="sourcePoint" />
            <mxPoint x="78.31908182286224" y="123.36440751341684" as="targetPoint" />
          </mxGeometry>
        </mxCell>
        <mxCell id="oaZHDNKOcv9WTvhMU7lw-53" value="" style="endArrow=none;html=1;rounded=0;" parent="oaZHDNKOcv9WTvhMU7lw-235" edge="1">
          <mxGeometry width="50" height="50" relative="1" as="geometry">
            <mxPoint x="84.94552084725251" y="103.01209982110913" as="sourcePoint" />
            <mxPoint x="91.57195987164275" y="115.318146332737" as="targetPoint" />
          </mxGeometry>
        </mxCell>
        <mxCell id="oaZHDNKOcv9WTvhMU7lw-54" value="" style="endArrow=none;html=1;rounded=0;" parent="oaZHDNKOcv9WTvhMU7lw-235" edge="1">
          <mxGeometry width="50" height="50" relative="1" as="geometry">
            <mxPoint x="54.65322816432567" y="81.7131731663685" as="sourcePoint" />
            <mxPoint x="59.38639889603297" y="91.17936279069772" as="targetPoint" />
          </mxGeometry>
        </mxCell>
        <mxCell id="oaZHDNKOcv9WTvhMU7lw-55" value="" style="endArrow=none;html=1;rounded=0;" parent="oaZHDNKOcv9WTvhMU7lw-235" edge="1">
          <mxGeometry width="50" height="50" relative="1" as="geometry">
            <mxPoint x="68.85274035944764" y="74.6135309481217" as="sourcePoint" />
            <mxPoint x="54.65322816432567" y="82.18648264758497" as="targetPoint" />
          </mxGeometry>
        </mxCell>
        <mxCell id="oaZHDNKOcv9WTvhMU7lw-56" value="" style="endArrow=none;html=1;rounded=0;" parent="oaZHDNKOcv9WTvhMU7lw-235" edge="1">
          <mxGeometry width="50" height="50" relative="1" as="geometry">
            <mxPoint x="72.63927694481347" y="83.13310161001789" as="sourcePoint" />
            <mxPoint x="59.38639889603297" y="90.70605330948126" as="targetPoint" />
          </mxGeometry>
        </mxCell>
        <mxCell id="oaZHDNKOcv9WTvhMU7lw-57" value="" style="endArrow=none;html=1;rounded=0;" parent="oaZHDNKOcv9WTvhMU7lw-235" edge="1">
          <mxGeometry width="50" height="50" relative="1" as="geometry">
            <mxPoint x="67.90610621310617" y="74.6135309481217" as="sourcePoint" />
            <mxPoint x="74.53254523749641" y="85.4996490161002" as="targetPoint" />
          </mxGeometry>
        </mxCell>
        <mxCell id="oaZHDNKOcv9WTvhMU7lw-220" value="&lt;span style=&quot;font-weight: normal; font-size: 6px;&quot;&gt;&lt;font style=&quot;font-size: 6px;&quot;&gt;Projected position from the panels support&lt;/font&gt;&lt;/span&gt;" style="text;align=center;html=1;verticalAlign=middle;rounded=0;shadow=0;glass=0;labelBorderColor=none;labelBackgroundColor=none;whiteSpace=wrap;fontStyle=1;container=0;fontSize=6;rotation=0;" parent="oaZHDNKOcv9WTvhMU7lw-235" vertex="1">
          <mxGeometry x="88.16142328627689" y="151.1082" width="70.23" height="5" as="geometry" />
        </mxCell>
        <mxCell id="oaZHDNKOcv9WTvhMU7lw-230" value="" style="ellipse;whiteSpace=wrap;html=1;aspect=fixed;fillColor=none;dashed=1;strokeColor=#303030;" parent="oaZHDNKOcv9WTvhMU7lw-235" vertex="1">
          <mxGeometry x="50.161423286276886" y="334.1082" width="56" height="56" as="geometry" />
        </mxCell>
        <mxCell id="oaZHDNKOcv9WTvhMU7lw-231" value="" style="endArrow=none;startArrow=classic;html=1;rounded=0;movable=1;resizable=1;rotatable=1;deletable=1;editable=1;locked=0;connectable=1;sourcePerimeterSpacing=0;strokeWidth=1;endSize=5;startSize=5;endFill=0;strokeColor=#323232;dashed=1;" parent="oaZHDNKOcv9WTvhMU7lw-235" edge="1">
          <mxGeometry width="50" height="50" relative="1" as="geometry">
            <mxPoint x="129.1614232862769" y="362.1082" as="sourcePoint" />
            <mxPoint x="110.16142328627689" y="362.1082" as="targetPoint" />
          </mxGeometry>
        </mxCell>
        <mxCell id="oaZHDNKOcv9WTvhMU7lw-232" value="&lt;span style=&quot;font-weight: 400; font-size: 6px;&quot;&gt;Arbitrary position between the cable holes (1) and style of Step Up Support Holder&amp;nbsp;&lt;/span&gt;&lt;span style=&quot;font-weight: normal;&quot;&gt;(to be checked the 3D model for more details)&lt;/span&gt;" style="text;align=center;html=1;verticalAlign=middle;rounded=0;shadow=0;glass=0;labelBorderColor=none;labelBackgroundColor=none;whiteSpace=wrap;fontStyle=1;container=0;fontSize=6;" parent="oaZHDNKOcv9WTvhMU7lw-235" vertex="1">
          <mxGeometry x="131.1614232862769" y="354.1082" width="119" height="17.26" as="geometry" />
        </mxCell>
        <mxCell id="oaZHDNKOcv9WTvhMU7lw-233" value="&lt;span style=&quot;font-weight: normal; font-size: 7px;&quot;&gt;&lt;font style=&quot;font-size: 7px;&quot;&gt;(1)&lt;/font&gt;&lt;/span&gt;" style="text;align=center;html=1;verticalAlign=middle;rounded=0;shadow=0;glass=0;labelBorderColor=none;labelBackgroundColor=none;whiteSpace=wrap;fontStyle=1;container=0;rotation=0;fontSize=7;perimeterSpacing=1;" parent="oaZHDNKOcv9WTvhMU7lw-235" vertex="1">
          <mxGeometry x="37.16142328627686" y="294.1052000000001" width="17.25" height="9.19" as="geometry" />
        </mxCell>
        <mxCell id="oaZHDNKOcv9WTvhMU7lw-234" value="&lt;span style=&quot;font-weight: normal; font-size: 7px;&quot;&gt;&lt;font style=&quot;font-size: 7px;&quot;&gt;(1)&lt;/font&gt;&lt;/span&gt;" style="text;align=center;html=1;verticalAlign=middle;rounded=0;shadow=0;glass=0;labelBorderColor=none;labelBackgroundColor=none;whiteSpace=wrap;fontStyle=1;container=0;rotation=0;fontSize=7;perimeterSpacing=1;" parent="oaZHDNKOcv9WTvhMU7lw-235" vertex="1">
          <mxGeometry x="54.16142328627686" y="402.1052000000001" width="17.25" height="9.19" as="geometry" />
        </mxCell>
        <mxCell id="oaZHDNKOcv9WTvhMU7lw-238" value="" style="group" parent="1" vertex="1" connectable="0">
          <mxGeometry x="502.5384767137231" y="-1018.1082" width="258.4615232862769" height="579.7782" as="geometry" />
        </mxCell>
        <mxCell id="vbN6h39PCeZpEfhpPAS_-191" value="&lt;font style=&quot;font-size: 20px;&quot;&gt;Tube Path View&lt;br&gt;&lt;/font&gt;" style="text;align=center;html=1;verticalAlign=middle;rounded=0;shadow=0;glass=0;labelBorderColor=none;labelBackgroundColor=none;whiteSpace=wrap;fontStyle=1;container=0;" parent="oaZHDNKOcv9WTvhMU7lw-238" vertex="1">
          <mxGeometry width="206.59852817429345" height="38.26146788990826" as="geometry" />
        </mxCell>
        <mxCell id="oaZHDNKOcv9WTvhMU7lw-60" value="" style="curved=1;endArrow=none;html=1;rounded=0;strokeWidth=1.5;endFill=0;" parent="oaZHDNKOcv9WTvhMU7lw-238" edge="1">
          <mxGeometry width="50" height="50" relative="1" as="geometry">
            <mxPoint x="60.486694017984235" y="577.4015874730637" as="sourcePoint" />
            <mxPoint x="39.65537694481344" y="262.098013182312" as="targetPoint" />
            <Array as="points">
              <mxPoint x="62.380450115545216" y="539.5272842549554" />
              <mxPoint x="61.433572066764725" y="444.8415262096846" />
              <mxPoint x="57.64605987164276" y="350.15576816441376" />
            </Array>
          </mxGeometry>
        </mxCell>
        <mxCell id="oaZHDNKOcv9WTvhMU7lw-61" value="" style="curved=1;endArrow=none;html=1;rounded=0;strokeWidth=1.5;endFill=0;" parent="oaZHDNKOcv9WTvhMU7lw-238" edge="1">
          <mxGeometry width="50" height="50" relative="1" as="geometry">
            <mxPoint x="39.65537694481344" y="263.04487076276473" as="sourcePoint" />
            <mxPoint x="181.6870842618867" y="133.3253822407437" as="targetPoint" />
            <Array as="points">
              <mxPoint x="27.345962310667176" y="213.80827657922384" />
              <mxPoint x="34.92098670091099" y="119.1225185339531" />
              <mxPoint x="114.45874279847197" y="71.77963951131767" />
              <mxPoint x="171.2714257253013" y="104.9196548271625" />
            </Array>
          </mxGeometry>
        </mxCell>
        <mxCell id="oaZHDNKOcv9WTvhMU7lw-62" value="" style="ellipse;whiteSpace=wrap;html=1;aspect=fixed;fontColor=#000000;fillColor=#000000;container=0;" parent="oaZHDNKOcv9WTvhMU7lw-238" vertex="1">
          <mxGeometry x="37.76162084725246" y="261.1511556018593" width="4.270327687841712" height="4.270327687841712" as="geometry" />
        </mxCell>
        <mxCell id="oaZHDNKOcv9WTvhMU7lw-63" value="" style="ellipse;whiteSpace=wrap;html=1;aspect=fixed;fontColor=#000000;fillColor=#000000;container=0;" parent="oaZHDNKOcv9WTvhMU7lw-238" vertex="1">
          <mxGeometry x="58.330084574081695" y="428.74494734198856" width="4.270327687841712" height="4.270327687841712" as="geometry" />
        </mxCell>
        <mxCell id="oaZHDNKOcv9WTvhMU7lw-64" value="" style="ellipse;whiteSpace=wrap;html=1;aspect=fixed;fontColor=#000000;fillColor=#000000;container=0;" parent="oaZHDNKOcv9WTvhMU7lw-238" vertex="1">
          <mxGeometry x="58.330084574081695" y="575.5078723121583" width="4.270327687841712" height="4.270327687841712" as="geometry" />
        </mxCell>
        <mxCell id="oaZHDNKOcv9WTvhMU7lw-65" value="" style="ellipse;whiteSpace=wrap;html=1;aspect=fixed;fontColor=#000000;fillColor=#000000;container=0;" parent="oaZHDNKOcv9WTvhMU7lw-238" vertex="1">
          <mxGeometry x="37.26768191310617" y="132.37852466029096" width="4.270327687841712" height="4.270327687841712" as="geometry" />
        </mxCell>
        <mxCell id="oaZHDNKOcv9WTvhMU7lw-66" value="" style="ellipse;whiteSpace=wrap;html=1;aspect=fixed;fontColor=#000000;fillColor=#000000;container=0;" parent="oaZHDNKOcv9WTvhMU7lw-238" vertex="1">
          <mxGeometry x="110.66966825456967" y="79.35450015493939" width="4.270327687841712" height="4.270327687841712" as="geometry" />
        </mxCell>
        <mxCell id="oaZHDNKOcv9WTvhMU7lw-67" value="" style="ellipse;whiteSpace=wrap;html=1;aspect=fixed;fontColor=#000000;fillColor=#000000;container=0;" parent="oaZHDNKOcv9WTvhMU7lw-238" vertex="1">
          <mxGeometry x="179.79176581554526" y="132.37852466029096" width="4.270327687841712" height="4.270327687841712" as="geometry" />
        </mxCell>
        <mxCell id="oaZHDNKOcv9WTvhMU7lw-68" value="" style="curved=1;endArrow=none;html=1;rounded=0;strokeWidth=1.5;endFill=0;" parent="oaZHDNKOcv9WTvhMU7lw-238" edge="1">
          <mxGeometry width="50" height="50" relative="1" as="geometry">
            <mxPoint x="39.65537694481344" y="577.4015874730637" as="sourcePoint" />
            <mxPoint x="18.82405987164276" y="262.098013182312" as="targetPoint" />
            <Array as="points">
              <mxPoint x="41.54913304237442" y="539.5272842549554" />
              <mxPoint x="40.60225499359393" y="444.8415262096846" />
              <mxPoint x="36.81474279847197" y="350.15576816441376" />
            </Array>
          </mxGeometry>
        </mxCell>
        <mxCell id="oaZHDNKOcv9WTvhMU7lw-69" value="" style="curved=1;endArrow=none;html=1;rounded=0;strokeWidth=1.5;endFill=0;" parent="oaZHDNKOcv9WTvhMU7lw-238" edge="1">
          <mxGeometry width="50" height="50" relative="1" as="geometry">
            <mxPoint x="18.82405987164276" y="262.098013182312" as="sourcePoint" />
            <mxPoint x="31.133474505789025" y="107.76022756852058" as="targetPoint" />
            <Array as="points">
              <mxPoint x="7.461523286276872" y="208.1271310965077" />
              <mxPoint x="9.355279383837853" y="154.15624901070328" />
              <mxPoint x="24.505328164325704" y="117.22880337304764" />
            </Array>
          </mxGeometry>
        </mxCell>
        <mxCell id="oaZHDNKOcv9WTvhMU7lw-70" value="" style="endArrow=none;html=1;rounded=0;strokeWidth=1.5;" parent="oaZHDNKOcv9WTvhMU7lw-238" edge="1">
          <mxGeometry width="50" height="50" relative="1" as="geometry">
            <mxPoint x="31.133474505789025" y="108.7070851489733" as="sourcePoint" />
            <mxPoint x="30.186596457008534" y="80.30135773539212" as="targetPoint" />
          </mxGeometry>
        </mxCell>
        <mxCell id="oaZHDNKOcv9WTvhMU7lw-71" value="" style="endArrow=none;html=1;rounded=0;strokeWidth=1.5;" parent="oaZHDNKOcv9WTvhMU7lw-238" edge="1">
          <mxGeometry width="50" height="50" relative="1" as="geometry">
            <mxPoint x="58.59293792042325" y="63.257921287243335" as="sourcePoint" />
            <mxPoint x="29.239718408228043" y="80.30135773539212" as="targetPoint" />
          </mxGeometry>
        </mxCell>
        <mxCell id="oaZHDNKOcv9WTvhMU7lw-72" value="" style="endArrow=none;html=1;rounded=0;strokeWidth=1.5;" parent="oaZHDNKOcv9WTvhMU7lw-238" edge="1">
          <mxGeometry width="50" height="50" relative="1" as="geometry">
            <mxPoint x="58.59293792042325" y="62.311063706790605" as="sourcePoint" />
            <mxPoint x="66.16796231066706" y="76.22987013944544" as="targetPoint" />
          </mxGeometry>
        </mxCell>
        <mxCell id="oaZHDNKOcv9WTvhMU7lw-73" value="" style="curved=1;endArrow=none;html=1;rounded=0;strokeWidth=1.5;endFill=0;" parent="oaZHDNKOcv9WTvhMU7lw-238" edge="1">
          <mxGeometry width="50" height="50" relative="1" as="geometry">
            <mxPoint x="66.16796231066706" y="75.56706983312858" as="sourcePoint" />
            <mxPoint x="200.6246452374964" y="124.80366401666936" as="targetPoint" />
            <Array as="points">
              <mxPoint x="122.0337671887159" y="48.10820000000001" />
              <mxPoint x="186.42147450578915" y="92.61050628127725" />
            </Array>
          </mxGeometry>
        </mxCell>
        <mxCell id="oaZHDNKOcv9WTvhMU7lw-74" value="" style="curved=1;endArrow=none;html=1;rounded=0;strokeWidth=1.5;endFill=0;" parent="oaZHDNKOcv9WTvhMU7lw-238" edge="1">
          <mxGeometry width="50" height="50" relative="1" as="geometry">
            <mxPoint x="83.87458182286224" y="511.1215568413741" as="sourcePoint" />
            <mxPoint x="61.433572066764725" y="262.098013182312" as="targetPoint" />
            <Array as="points">
              <mxPoint x="84.15864523749639" y="539.5272842549554" />
              <mxPoint x="83.2117671887159" y="444.8415262096846" />
              <mxPoint x="79.42425499359393" y="350.15576816441376" />
            </Array>
          </mxGeometry>
        </mxCell>
        <mxCell id="oaZHDNKOcv9WTvhMU7lw-75" value="" style="curved=1;endArrow=none;html=1;rounded=0;strokeWidth=1.5;endFill=0;" parent="oaZHDNKOcv9WTvhMU7lw-238" edge="1">
          <mxGeometry width="50" height="50" relative="1" as="geometry">
            <mxPoint x="61.433572066764725" y="263.04487076276473" as="sourcePoint" />
            <mxPoint x="59.539815969203744" y="142.79395804527076" as="targetPoint" />
            <Array as="points">
              <mxPoint x="51.96479157895982" y="206.23341593560224" />
              <mxPoint x="50.07103548139884" y="165.5185399761358" />
            </Array>
          </mxGeometry>
        </mxCell>
        <mxCell id="oaZHDNKOcv9WTvhMU7lw-76" value="" style="endArrow=none;html=1;rounded=0;strokeWidth=1.5;" parent="oaZHDNKOcv9WTvhMU7lw-238" edge="1">
          <mxGeometry width="50" height="50" relative="1" as="geometry">
            <mxPoint x="65.22108426188657" y="144.6876732061762" as="sourcePoint" />
            <mxPoint x="58.59293792042325" y="142.79395804527076" as="targetPoint" />
          </mxGeometry>
        </mxCell>
        <mxCell id="oaZHDNKOcv9WTvhMU7lw-77" value="" style="endArrow=none;html=1;rounded=0;strokeWidth=1.5;" parent="oaZHDNKOcv9WTvhMU7lw-238" edge="1">
          <mxGeometry width="50" height="50" relative="1" as="geometry">
            <mxPoint x="95.52118182286227" y="126.69737917757482" as="sourcePoint" />
            <mxPoint x="64.27420621310608" y="144.6876732061762" as="targetPoint" />
          </mxGeometry>
        </mxCell>
        <mxCell id="oaZHDNKOcv9WTvhMU7lw-78" value="" style="endArrow=none;html=1;rounded=0;strokeWidth=1.5;" parent="oaZHDNKOcv9WTvhMU7lw-238" edge="1">
          <mxGeometry width="50" height="50" relative="1" as="geometry">
            <mxPoint x="86.99927938383786" y="111.54765789033138" as="sourcePoint" />
            <mxPoint x="95.52118182286227" y="127.64423675802743" as="targetPoint" />
          </mxGeometry>
        </mxCell>
        <mxCell id="oaZHDNKOcv9WTvhMU7lw-79" value="" style="curved=1;endArrow=none;html=1;rounded=0;strokeWidth=1.5;endFill=0;" parent="oaZHDNKOcv9WTvhMU7lw-238" edge="1">
          <mxGeometry width="50" height="50" relative="1" as="geometry">
            <mxPoint x="86.99927938383786" y="112.49451547078411" as="sourcePoint" />
            <mxPoint x="114.45874279847197" y="103.97279724670977" as="targetPoint" />
            <Array as="points">
              <mxPoint x="92.6805476765208" y="108.7070851489733" />
              <mxPoint x="104.04308426188669" y="103.97279724670977" />
            </Array>
          </mxGeometry>
        </mxCell>
        <mxCell id="oaZHDNKOcv9WTvhMU7lw-80" value="" style="curved=1;endArrow=none;html=1;rounded=0;strokeWidth=1.5;endFill=0;" parent="oaZHDNKOcv9WTvhMU7lw-238" edge="1">
          <mxGeometry width="50" height="50" relative="1" as="geometry">
            <mxPoint x="136.23693792042326" y="108.7070851489733" as="sourcePoint" />
            <mxPoint x="163.69640133505737" y="144.6876732061762" as="targetPoint" />
            <Array as="points">
              <mxPoint x="150.4401086521305" y="121.01623369485856" />
              <mxPoint x="159.9088891399354" y="136.16595498210188" />
            </Array>
          </mxGeometry>
        </mxCell>
        <mxCell id="oaZHDNKOcv9WTvhMU7lw-81" value="" style="endArrow=none;html=1;rounded=0;strokeWidth=1.5;" parent="oaZHDNKOcv9WTvhMU7lw-238" edge="1">
          <mxGeometry width="50" height="50" relative="1" as="geometry">
            <mxPoint x="162.74952328627688" y="144.6876732061762" as="sourcePoint" />
            <mxPoint x="201.57152328627689" y="124.80366401666936" as="targetPoint" />
          </mxGeometry>
        </mxCell>
        <mxCell id="oaZHDNKOcv9WTvhMU7lw-82" value="" style="curved=1;endArrow=none;html=1;rounded=0;strokeWidth=1.5;endFill=0;" parent="oaZHDNKOcv9WTvhMU7lw-238" edge="1">
          <mxGeometry width="50" height="50" relative="1" as="geometry">
            <mxPoint x="75.63674279847197" y="577.4015874730637" as="sourcePoint" />
            <mxPoint x="84.15864523749639" y="521.536990226354" as="targetPoint" />
            <Array as="points">
              <mxPoint x="77.53049889603295" y="557.5175782835568" />
              <mxPoint x="72.7961086521305" y="527.2181357090701" />
            </Array>
          </mxGeometry>
        </mxCell>
        <mxCell id="oaZHDNKOcv9WTvhMU7lw-83" value="" style="endArrow=none;html=1;rounded=0;strokeWidth=1.5;" parent="oaZHDNKOcv9WTvhMU7lw-238" edge="1">
          <mxGeometry width="50" height="50" relative="1" as="geometry">
            <mxPoint x="38.9925623106671" y="577.4015874730637" as="sourcePoint" />
            <mxPoint x="76.39424523749636" y="577.4015874730637" as="targetPoint" />
          </mxGeometry>
        </mxCell>
        <mxCell id="oaZHDNKOcv9WTvhMU7lw-84" value="" style="curved=1;endArrow=none;html=1;rounded=0;strokeWidth=1.5;endFill=0;" parent="oaZHDNKOcv9WTvhMU7lw-238" edge="1">
          <mxGeometry width="50" height="50" relative="1" as="geometry">
            <mxPoint x="113.51186474969148" y="103.97279724670977" as="sourcePoint" />
            <mxPoint x="136.42631353017936" y="108.99114242310907" as="targetPoint" />
            <Array as="points">
              <mxPoint x="115.40562084725246" y="98.29165176399351" />
              <mxPoint x="132.4494257253013" y="97.34479418354078" />
            </Array>
          </mxGeometry>
        </mxCell>
        <mxCell id="oaZHDNKOcv9WTvhMU7lw-88" value="" style="endArrow=none;html=1;rounded=0;strokeWidth=1.5;" parent="oaZHDNKOcv9WTvhMU7lw-238" edge="1">
          <mxGeometry width="50" height="50" relative="1" as="geometry">
            <mxPoint x="75.35438376432575" y="341.4831208420152" as="sourcePoint" />
            <mxPoint x="82.2648891399354" y="341.6340499403394" as="targetPoint" />
          </mxGeometry>
        </mxCell>
        <mxCell id="oaZHDNKOcv9WTvhMU7lw-89" value="" style="endArrow=none;html=1;rounded=0;strokeWidth=1.5;" parent="oaZHDNKOcv9WTvhMU7lw-238" edge="1">
          <mxGeometry width="50" height="50" relative="1" as="geometry">
            <mxPoint x="76.30126181310624" y="349.0579814856369" as="sourcePoint" />
            <mxPoint x="82.2648891399354" y="349.208910583961" as="targetPoint" />
          </mxGeometry>
        </mxCell>
        <mxCell id="oaZHDNKOcv9WTvhMU7lw-90" value="" style="endArrow=none;html=1;rounded=0;strokeWidth=1.5;" parent="oaZHDNKOcv9WTvhMU7lw-238" edge="1">
          <mxGeometry width="50" height="50" relative="1" as="geometry">
            <mxPoint x="82.2648891399354" y="349.9190537693006" as="sourcePoint" />
            <mxPoint x="82.2648891399354" y="340.92390675499985" as="targetPoint" />
          </mxGeometry>
        </mxCell>
        <mxCell id="oaZHDNKOcv9WTvhMU7lw-91" value="" style="endArrow=none;html=1;rounded=0;strokeWidth=1.5;" parent="oaZHDNKOcv9WTvhMU7lw-238" edge="1">
          <mxGeometry width="50" height="50" relative="1" as="geometry">
            <mxPoint x="80.08877400822809" y="376.51685131876536" as="sourcePoint" />
            <mxPoint x="84.15864523749639" y="376.43106602197645" as="targetPoint" />
          </mxGeometry>
        </mxCell>
        <mxCell id="oaZHDNKOcv9WTvhMU7lw-92" value="" style="endArrow=none;html=1;rounded=0;strokeWidth=1.5;" parent="oaZHDNKOcv9WTvhMU7lw-238" edge="1">
          <mxGeometry width="50" height="50" relative="1" as="geometry">
            <mxPoint x="80.08877400822809" y="384.0917119623871" as="sourcePoint" />
            <mxPoint x="84.15864523749639" y="384.00592666559805" as="targetPoint" />
          </mxGeometry>
        </mxCell>
        <mxCell id="oaZHDNKOcv9WTvhMU7lw-93" value="" style="endArrow=none;html=1;rounded=0;strokeWidth=1.5;" parent="oaZHDNKOcv9WTvhMU7lw-238" edge="1">
          <mxGeometry width="50" height="50" relative="1" as="geometry">
            <mxPoint x="84.15864523749639" y="384.71606985093774" as="sourcePoint" />
            <mxPoint x="84.15864523749639" y="375.7209228366369" as="targetPoint" />
          </mxGeometry>
        </mxCell>
        <mxCell id="oaZHDNKOcv9WTvhMU7lw-115" value="" style="rounded=0;whiteSpace=wrap;html=1;pointerEvents=0;fontFamily=Helvetica;fontSize=12;fontColor=default;fillColor=default;gradientColor=none;strokeColor=#FFFFFF;rotation=1.6;" parent="oaZHDNKOcv9WTvhMU7lw-238" vertex="1">
          <mxGeometry x="71.57634034969152" y="342.429978422468" width="9.46878048780488" height="5.416025360189488" as="geometry" />
        </mxCell>
        <mxCell id="oaZHDNKOcv9WTvhMU7lw-116" value="" style="rounded=0;whiteSpace=wrap;html=1;pointerEvents=0;fontFamily=Helvetica;fontSize=12;fontColor=default;fillColor=default;gradientColor=none;strokeColor=#FFFFFF;rotation=0;" parent="oaZHDNKOcv9WTvhMU7lw-238" vertex="1">
          <mxGeometry x="73.46062766676476" y="377.4637088992182" width="9.46878048780488" height="5.416025360189488" as="geometry" />
        </mxCell>
        <mxCell id="oaZHDNKOcv9WTvhMU7lw-236" value="&lt;span style=&quot;font-weight: 400; font-size: 12px;&quot;&gt;Path Lenght : 200 mm&lt;br style=&quot;font-size: 12px;&quot;&gt;The tube path is arbitrary ( it&#39;s not made out of arcs, to be checked the 3D model for more details)&lt;br style=&quot;font-size: 12px;&quot;&gt;&lt;/span&gt;" style="text;align=center;html=1;verticalAlign=middle;rounded=0;shadow=0;glass=0;labelBorderColor=none;labelBackgroundColor=none;whiteSpace=wrap;fontStyle=1;container=0;fontSize=12;rotation=0;" parent="oaZHDNKOcv9WTvhMU7lw-238" vertex="1">
          <mxGeometry x="62.46152328627687" y="198.1082" width="196" height="5" as="geometry" />
        </mxCell>
      </root>
    </mxGraphModel>
  </diagram>
</mxfile>
